<!DOCTYPE svg PUBLIC "-//W3C//DTD SVG 20010904//EN" "http://www.w3.org/TR/2001/REC-SVG-20010904/DTD/svg10.dtd">
<svg version="1.0" xmlns="http://www.w3.org/2000/svg" width="1073px" height="267px" viewBox="0 0 10730 2670" preserveAspectRatio="xMidYMid meet">
<g id="layer101" fill="#59015d" stroke="none">
 <path d="M0 1335 l0 -1335 5365 0 5365 0 0 1335 0 1335 -5365 0 -5365 0 0 -1335z"/>
 </g>
<g id="layer102" fill="#f1ecf1" stroke="none">
 <path d="M0 1335 l0 -1335 83 1 c45 1 72 4 60 6 -11 2 -46 31 -77 63 l-56 59 0 1220 c0 768 4 1229 10 1245 5 14 24 35 42 46 33 20 54 20 5287 20 l5254 0 58 -59 59 -59 0 -1233 0 -1234 -24 -30 -24 -30 -5254 -5 -5253 -5 5283 -3 5282 -2 0 1335 0 1335 -5365 0 -5365 0 0 -1335z"/>
 <path d="M612 2230 c-71 -16 -122 -99 -108 -174 4 -20 21 -52 37 -71 90 -102 259 -40 259 95 0 104 -86 173 -188 150z"/>
 <path d="M1282 2230 c-71 -16 -122 -99 -108 -174 4 -20 21 -52 37 -71 90 -102 259 -40 259 95 0 104 -86 173 -188 150z"/>
 <path d="M1952 2230 c-71 -16 -122 -99 -108 -174 4 -20 21 -52 37 -71 90 -102 259 -40 259 95 0 104 -86 173 -188 150z"/>
 <path d="M2632 2230 c-71 -16 -122 -99 -108 -174 4 -20 21 -52 37 -71 90 -102 259 -40 259 95 0 104 -86 173 -188 150z"/>
 <path d="M3302 2230 c-71 -16 -122 -99 -108 -174 4 -20 21 -52 37 -71 90 -102 259 -40 259 95 0 104 -86 173 -188 150z"/>
 <path d="M3972 2230 c-71 -16 -122 -99 -108 -174 4 -20 21 -52 37 -71 90 -102 259 -40 259 95 0 104 -86 173 -188 150z"/>
 <path d="M4652 2230 c-71 -16 -122 -99 -108 -174 4 -20 21 -52 37 -71 90 -102 259 -40 259 95 0 104 -86 173 -188 150z"/>
 <path d="M5322 2230 c-71 -16 -122 -99 -108 -174 4 -20 21 -52 37 -71 90 -102 259 -40 259 95 0 104 -86 173 -188 150z"/>
 <path d="M5992 2230 c-71 -16 -122 -99 -108 -174 4 -20 21 -52 37 -71 90 -102 259 -40 259 95 0 104 -86 173 -188 150z"/>
 <path d="M6632 2230 c-71 -16 -122 -99 -108 -174 4 -20 21 -52 37 -71 90 -102 259 -40 259 95 0 104 -86 173 -188 150z"/>
 <path d="M7342 2230 c-71 -16 -122 -99 -108 -174 4 -20 21 -52 37 -71 90 -102 259 -40 259 95 0 104 -86 173 -188 150z"/>
 <path d="M8052 2230 c-71 -16 -122 -99 -108 -174 4 -20 21 -52 37 -71 90 -102 259 -40 259 95 0 104 -86 173 -188 150z"/>
 <path d="M8762 2230 c-71 -16 -122 -99 -108 -174 4 -20 21 -52 37 -71 90 -102 259 -40 259 95 0 104 -86 173 -188 150z"/>
 <path d="M9472 2230 c-71 -16 -122 -99 -108 -174 4 -20 21 -52 37 -71 90 -102 259 -40 259 95 0 104 -86 173 -188 150z"/>
 <path d="M10182 2230 c-71 -16 -122 -99 -108 -174 4 -20 21 -52 37 -71 90 -102 259 -40 259 95 0 104 -86 173 -188 150z"/>
 <path d="M1721 1520 c-1 -55 -1 -55 31 -57 17 -1 38 2 45 8 15 13 18 103 3 94 -5 -3 -10 -26 -10 -51 0 -37 -3 -44 -19 -44 -25 0 -33 14 -42 65 -6 39 -7 38 -8 -15z"/>
 <path d="M1850 1555 c-7 -8 -12 -26 -12 -40 0 -34 19 -55 51 -55 32 0 51 16 51 43 0 16 -7 18 -42 16 -33 -2 -42 1 -40 12 5 19 24 30 42 23 38 -15 44 -15 26 0 -25 20 -60 21 -76 1z m70 -70 c-7 -8 -20 -15 -30 -15 -10 0 -23 7 -30 15 -11 13 -7 15 30 15 37 0 41 -2 30 -15z"/>
 <path d="M1986 1557 c-21 -16 -24 -60 -6 -82 17 -20 82 -16 88 5 4 12 2 13 -9 3 -33 -32 -86 -3 -75 41 7 29 37 41 66 26 11 -6 20 -7 20 -1 0 22 -57 28 -84 8z"/>
 <path d="M2110 1555 c-7 -8 -12 -26 -12 -40 0 -34 19 -55 51 -55 32 0 51 16 51 43 0 16 -7 18 -42 16 -33 -2 -42 1 -40 12 5 19 24 30 42 23 38 -15 44 -15 26 0 -25 20 -60 21 -76 1z m70 -70 c-7 -8 -20 -15 -30 -15 -10 0 -23 7 -30 15 -11 13 -7 15 30 15 37 0 41 -2 30 -15z"/>
 <path d="M2225 1560 c-5 -9 -1 -10 13 -6 32 10 37 -13 8 -39 -16 -14 -23 -30 -20 -39 7 -17 39 -22 48 -7 4 5 -3 7 -14 4 -27 -7 -26 18 1 35 27 17 22 56 -8 60 -11 2 -24 -2 -28 -8z"/>
 <path d="M2307 1563 c-11 -10 -8 -103 3 -103 6 0 10 25 10 55 0 56 -1 60 -13 48z"/>
 <path d="M2353 1544 c-15 -24 -15 -29 -2 -53 12 -21 22 -26 52 -26 32 0 37 -3 37 -22 0 -13 4 -23 10 -23 12 0 12 138 -1 145 -5 4 -9 1 -9 -6 0 -10 -3 -10 -12 -1 -21 21 -56 14 -75 -14z m71 3 c38 -27 -2 -95 -41 -71 -25 16 -29 55 -7 71 10 7 21 13 24 13 3 0 14 -6 24 -13z"/>
 <path d="M2497 1552 c-39 -43 -6 -94 56 -90 l37 3 0 55 c0 38 -3 50 -10 40 -5 -8 -7 -24 -4 -36 6 -22 -18 -54 -40 -54 -33 0 -49 57 -21 80 8 6 23 9 36 5 14 -5 19 -4 15 4 -11 17 -51 13 -69 -7z"/>
 <path d="M2637 1552 c-21 -23 -22 -65 -2 -82 8 -7 28 -10 45 -8 26 4 30 1 30 -19 0 -13 5 -23 10 -23 6 0 10 31 10 73 l0 72 -38 3 c-27 1 -44 -3 -55 -16z m61 -4 c30 -30 2 -86 -37 -73 -29 9 -36 42 -15 66 20 22 35 24 52 7z"/>
 <path d="M2763 1544 c-15 -24 -15 -29 -2 -53 25 -45 99 -38 99 10 0 16 -8 19 -45 19 -47 0 -56 9 -30 30 12 10 21 10 40 2 14 -7 25 -8 25 -3 0 5 -7 12 -16 15 -31 12 -54 6 -71 -20z m75 -56 c-7 -19 -43 -21 -58 -3 -11 13 -8 15 25 15 25 0 35 -4 33 -12z"/>
 <path d="M2884 1559 c-5 -9 -2 -10 10 -6 27 11 31 -21 5 -41 -14 -12 -20 -25 -16 -35 7 -19 42 -23 53 -6 4 8 0 9 -15 4 -28 -9 -29 20 0 35 27 15 22 54 -8 58 -11 2 -25 -2 -29 -9z"/>
 <path d="M3020 1495 c0 -43 4 -75 10 -75 6 0 10 10 10 23 0 18 5 22 32 22 30 0 34 4 42 36 5 21 5 45 0 55 -6 15 -9 7 -12 -29 -2 -30 -8 -50 -18 -54 -24 -9 -44 17 -44 58 0 22 -4 39 -10 39 -6 0 -10 -32 -10 -75z"/>
 <path d="M3152 1558 c-14 -14 -16 -98 -2 -98 6 0 10 20 10 44 0 31 5 46 16 50 26 10 44 -13 44 -55 0 -47 17 -53 18 -6 2 60 -51 100 -86 65z"/>
 <path d="M3268 1564 c-5 -4 -8 -29 -8 -54 l0 -47 78 1 77 1 9 36 c5 21 5 45 0 55 -6 15 -9 7 -12 -29 -5 -80 -49 -76 -63 5 l-6 43 -2 -40 c-1 -22 -6 -47 -11 -55 -16 -26 -44 2 -50 49 -3 24 -8 39 -12 35z"/>
 <path d="M3467 1552 c-21 -23 -22 -65 -3 -81 8 -6 32 -10 55 -9 l41 3 0 50 0 50 -38 3 c-27 1 -44 -3 -55 -16z m61 -4 c30 -30 2 -86 -37 -73 -29 9 -36 42 -15 66 20 22 35 24 52 7z"/>
 <path d="M3590 1518 l0 -54 43 1 42 0 1 55 c1 47 1 48 -3 10 -5 -53 -14 -64 -42 -55 -17 5 -21 15 -21 45 0 21 -4 42 -10 45 -6 4 -10 -14 -10 -47z"/>
 <path d="M3732 1563 c-25 -9 -34 -53 -17 -79 13 -20 23 -24 60 -22 l45 1 0 51 0 52 -37 1 c-21 0 -44 -1 -51 -4z m52 -16 c38 -27 -2 -95 -41 -71 -24 15 -28 48 -8 68 20 19 26 20 49 3z"/>
 <path d="M3844 1559 c-5 -9 -2 -10 10 -6 27 11 31 -21 5 -41 -14 -12 -20 -25 -16 -35 7 -19 42 -23 53 -6 4 8 0 9 -15 4 -28 -9 -29 20 0 35 27 15 22 54 -8 58 -11 2 -25 -2 -29 -9z"/>
 <path d="M1880 1364 c0 -3 4 -14 10 -24 7 -14 5 -31 -10 -66 -11 -26 -18 -49 -15 -52 6 -6 7 -6 27 38 l16 35 16 -37 c9 -21 20 -38 25 -38 11 0 -51 150 -61 150 -5 0 -8 -3 -8 -6z"/>
 <path d="M877 1312 c-38 -41 -3 -100 52 -89 27 6 30 3 34 -21 2 -15 5 9 5 53 1 54 -1 75 -8 65 -5 -8 -7 -24 -4 -36 6 -22 -18 -54 -40 -54 -33 0 -49 57 -21 80 8 6 23 9 36 5 14 -5 19 -4 15 4 -11 17 -51 13 -69 -7z"/>
 <path d="M1016 1314 c-19 -18 -21 -65 -4 -82 20 -20 65 -14 82 10 21 29 12 38 -39 38 -35 0 -43 3 -39 15 9 24 43 29 65 9 20 -18 27 -6 7 14 -17 17 -54 15 -72 -4z m64 -69 c-15 -18 -51 -16 -58 3 -2 8 8 12 33 12 33 0 36 -2 25 -15z"/>
 <path d="M1187 1323 c-11 -10 -8 -103 3 -103 6 0 10 25 10 55 0 56 -1 60 -13 48z"/>
 <path d="M1231 1280 c-1 -55 -1 -55 31 -57 17 -1 38 2 45 8 15 13 18 103 3 94 -5 -3 -10 -26 -10 -51 0 -37 -3 -44 -19 -44 -25 0 -33 14 -42 65 -6 39 -7 38 -8 -15z"/>
 <path d="M1360 1281 c0 -30 -5 -51 -12 -54 -10 -4 -10 -6 0 -6 6 -1 12 -10 12 -21 0 -11 5 -20 10 -20 6 0 10 9 10 19 0 11 6 22 13 24 10 4 10 6 0 6 -9 1 -13 18 -13 51 0 28 -4 50 -10 50 -5 0 -10 -22 -10 -49z"/>
 <path d="M1423 1304 c-15 -24 -15 -29 -2 -53 25 -45 99 -38 99 10 0 16 -8 19 -45 19 -47 0 -56 9 -30 30 12 10 21 10 40 2 14 -7 25 -8 25 -3 0 5 -7 12 -16 15 -31 12 -54 6 -71 -20z m75 -56 c-7 -19 -43 -21 -58 -3 -11 13 -8 15 25 15 25 0 35 -4 33 -12z"/>
 <path d="M1540 1276 c0 -51 1 -53 27 -53 21 0 23 1 10 9 -12 6 -17 23 -17 53 0 25 -4 45 -10 45 -5 0 -10 -24 -10 -54z"/>
 <path d="M1613 1304 c-15 -24 -15 -29 -2 -53 25 -45 99 -38 99 10 0 16 -8 19 -45 19 -47 0 -56 9 -30 30 12 10 21 10 40 2 14 -7 25 -8 25 -3 0 5 -7 12 -16 15 -31 12 -54 6 -71 -20z m75 -56 c-7 -19 -43 -21 -58 -3 -11 13 -8 15 25 15 25 0 35 -4 33 -12z"/>
 <path d="M1734 1319 c-5 -9 -2 -10 10 -6 27 11 31 -21 5 -41 -14 -12 -20 -25 -16 -35 7 -19 42 -23 53 -6 4 8 0 9 -15 4 -28 -9 -29 20 0 35 27 15 22 54 -8 58 -11 2 -25 -2 -29 -9z"/>
 <path d="M2024 1319 c-4 -7 0 -9 14 -5 30 10 39 -14 13 -35 -12 -10 -21 -26 -19 -36 3 -19 48 -32 48 -14 0 6 -6 8 -14 5 -25 -10 -26 13 -1 36 19 18 22 27 14 41 -11 21 -44 25 -55 8z"/>
 <path d="M2122 1318 c-7 -7 -11 -32 -10 -57 l1 -46 4 42 c8 81 63 83 74 2 l6 -44 1 46 c2 49 -10 69 -43 69 -12 0 -26 -5 -33 -12z"/>
 <path d="M2280 1276 c0 -51 1 -53 27 -53 21 0 23 1 10 9 -12 6 -17 23 -17 53 0 25 -4 45 -10 45 -5 0 -10 -24 -10 -54z"/>
 <path d="M2353 1304 c-15 -24 -15 -29 -2 -53 25 -45 99 -38 99 10 0 16 -8 19 -45 19 -47 0 -56 9 -30 30 12 10 21 10 40 2 14 -7 25 -8 25 -3 0 5 -7 12 -16 15 -31 12 -54 6 -71 -20z m75 -56 c-7 -19 -43 -21 -58 -3 -11 13 -8 15 25 15 25 0 35 -4 33 -12z"/>
 <path d="M2477 1323 c-11 -10 -8 -143 3 -143 6 0 10 32 10 75 0 75 -1 81 -13 68z"/>
 <path d="M2523 1304 c-15 -24 -15 -29 -2 -53 25 -45 99 -38 99 10 0 16 -8 19 -45 19 -47 0 -56 9 -30 30 12 10 21 10 40 2 14 -7 25 -8 25 -3 0 5 -7 12 -16 15 -31 12 -54 6 -71 -20z m75 -56 c-7 -19 -43 -21 -58 -3 -11 13 -8 15 25 15 25 0 35 -4 33 -12z"/>
 <path d="M2763 1304 c-15 -24 -15 -29 -2 -53 12 -22 22 -26 59 -27 l45 -2 2 49 c2 26 -2 51 -7 54 -6 3 -10 1 -10 -6 0 -10 -3 -10 -12 -1 -21 21 -56 14 -75 -14z m71 3 c22 -16 18 -55 -6 -71 -40 -24 -80 44 -42 71 10 7 21 13 24 13 3 0 14 -6 24 -13z"/>
 <path d="M2897 1319 c-5 -9 -7 -34 -5 -55 3 -35 6 -38 38 -42 24 -2 38 1 47 14 15 21 18 94 3 94 -5 0 -10 -20 -10 -45 0 -79 -56 -71 -62 8 -3 29 -6 37 -11 26z"/>
 <path d="M3030 1310 c-24 -24 -25 -38 -4 -68 12 -18 24 -22 52 -20 19 2 37 8 39 15 3 9 -3 9 -26 0 -23 -8 -33 -8 -45 2 -42 35 4 98 53 72 11 -7 21 -8 21 -2 0 5 -7 12 -16 15 -29 11 -54 6 -74 -14z"/>
 <path d="M3147 1323 c-11 -10 -8 -103 3 -103 6 0 10 25 10 55 0 56 -1 60 -13 48z"/>
 <path d="M3193 1304 c-15 -24 -15 -29 -2 -53 12 -22 22 -26 61 -27 l45 -2 2 49 c0 26 -4 51 -9 54 -10 6 -12 1 -14 -49 -2 -58 -67 -61 -74 -3 -4 29 26 51 54 40 12 -4 15 -3 10 5 -13 22 -55 13 -73 -14z"/>
 <path d="M3396 1317 c-21 -16 -24 -60 -6 -82 17 -20 82 -16 88 5 4 12 2 13 -9 3 -33 -32 -86 -3 -75 41 7 29 37 41 66 26 11 -6 20 -7 20 -1 0 22 -57 28 -84 8z"/>
 <path d="M3513 1304 c-15 -24 -15 -29 -2 -53 16 -29 61 -40 85 -20 8 6 14 24 14 40 0 58 -65 81 -97 33z m71 0 c19 -18 20 -28 6 -55 -20 -36 -70 -17 -70 26 0 41 36 58 64 29z"/>
 <path d="M3640 1278 l0 -54 43 1 42 0 1 55 c1 47 1 48 -3 10 -5 -53 -14 -64 -42 -55 -17 5 -21 15 -21 45 0 21 -4 42 -10 45 -6 4 -10 -14 -10 -47z"/>
 <path d="M3772 1283 c-1 -30 -7 -53 -14 -56 -10 -4 -10 -6 0 -6 6 -1 12 -10 12 -21 0 -13 6 -20 18 -19 10 0 12 3 5 6 -7 2 -13 11 -13 19 0 8 6 14 13 14 9 0 9 2 0 8 -6 4 -13 30 -16 57 l-3 50 -2 -52z"/>
 <path d="M3837 1312 c-34 -37 -11 -92 38 -92 50 0 73 60 37 93 -24 22 -55 21 -75 -1z m61 -4 c30 -30 -2 -93 -36 -71 -21 13 -27 50 -12 69 15 17 32 18 48 2z"/>
 <path d="M3950 1276 c0 -54 1 -56 28 -56 23 1 24 2 10 11 -12 7 -18 22 -18 49 0 21 -4 42 -10 45 -6 4 -10 -15 -10 -49z"/>
 <path d="M4018 1324 c-5 -4 -8 -29 -8 -54 l0 -47 78 1 77 1 9 36 c5 21 5 45 0 55 -6 15 -9 7 -12 -29 -5 -80 -49 -76 -63 5 l-6 43 -2 -40 c-1 -22 -6 -47 -11 -55 -16 -26 -44 2 -50 49 -3 24 -8 39 -12 35z"/>
 <path d="M4216 1314 c-19 -18 -21 -65 -4 -82 20 -20 65 -14 82 10 21 29 12 38 -39 38 -35 0 -43 3 -39 15 9 24 43 29 65 9 20 -18 27 -6 7 14 -17 17 -54 15 -72 -4z m64 -69 c-15 -18 -51 -16 -58 3 -2 8 8 12 33 12 33 0 36 -2 25 -15z"/>
 <path d="M4393 1304 c-15 -24 -15 -29 -2 -53 12 -22 22 -26 61 -27 l45 -2 2 49 c0 26 -4 51 -9 54 -10 6 -12 1 -14 -49 -2 -58 -67 -61 -74 -3 -4 29 26 51 54 40 12 -4 15 -3 10 5 -13 22 -55 13 -73 -14z"/>
 <path d="M4583 1255 c0 -44 2 -61 4 -37 2 23 2 59 0 80 -2 20 -4 1 -4 -43z"/>
 <path d="M4642 1323 c-25 -9 -34 -53 -17 -79 13 -20 23 -24 60 -22 l45 1 0 51 0 52 -37 1 c-21 0 -44 -1 -51 -4z m52 -16 c38 -27 -2 -95 -41 -71 -24 15 -28 48 -8 68 20 19 26 20 49 3z"/>
 <path d="M4754 1319 c-5 -9 -2 -10 10 -6 27 11 31 -21 5 -41 -14 -12 -20 -25 -16 -35 7 -19 42 -23 53 -6 4 8 0 9 -15 4 -28 -9 -29 20 0 35 27 15 22 54 -8 58 -11 2 -25 -2 -29 -9z"/>
 <path d="M6965 1275 c0 -30 3 -55 6 -55 4 0 9 -9 12 -20 3 -12 14 -20 26 -20 25 0 28 15 4 24 -13 5 -14 9 -5 15 10 6 10 11 -3 21 -9 7 -15 28 -15 51 0 25 -5 39 -12 39 -9 0 -13 -18 -13 -55z"/>
 <path d="M7037 1312 c-21 -23 -21 -41 -1 -70 27 -39 94 -25 94 20 0 14 -8 18 -40 18 -22 0 -40 5 -40 10 0 11 12 13 48 10 25 -2 30 15 6 24 -28 11 -50 6 -67 -12z m56 -63 c-8 -8 -16 -8 -30 0 -16 9 -14 10 12 11 21 0 26 -3 18 -11z"/>
 <path d="M7157 1324 c-16 -16 -7 -32 15 -26 l22 5 -22 -28 c-17 -22 -20 -31 -10 -42 14 -17 50 -13 56 6 3 9 -2 11 -17 6 -27 -8 -27 2 2 25 18 15 20 22 11 37 -12 19 -45 29 -57 17z"/>
 <path d="M7236 1288 c8 -57 11 -68 24 -68 11 0 13 52 4 88 -4 12 -13 22 -20 22 -11 0 -13 -10 -8 -42z"/>
 <path d="M7297 1309 c-21 -29 -7 -72 27 -84 35 -12 60 3 64 39 7 56 -61 89 -91 45z m71 -35 c4 -25 -24 -40 -44 -23 -8 6 -14 20 -14 31 0 29 54 21 58 -8z"/>
 <path d="M7423 1276 c10 -54 10 -54 46 -52 l36 1 0 49 c0 33 -5 51 -13 54 -11 3 -13 -6 -10 -39 2 -34 0 -44 -12 -44 -9 0 -17 16 -23 43 -4 23 -14 42 -21 42 -10 0 -10 -12 -3 -54z"/>
 <path d="M7547 1312 c-21 -23 -21 -41 -1 -70 27 -39 94 -25 94 20 0 14 -8 18 -40 18 -22 0 -40 5 -40 10 0 11 12 13 48 10 25 -2 30 15 6 24 -28 11 -50 6 -67 -12z m56 -63 c-8 -8 -16 -8 -30 0 -16 9 -14 10 12 11 21 0 26 -3 18 -11z"/>
 <path d="M7667 1323 c-17 -16 -6 -30 21 -26 l27 5 -24 -20 c-30 -24 -25 -57 8 -57 14 0 26 6 29 14 3 10 -2 11 -19 6 l-24 -7 23 24 c12 13 22 31 22 40 0 22 -47 38 -63 21z"/>
 <path d="M7821 1317 c-16 -16 -14 -72 4 -87 8 -7 28 -10 45 -8 26 4 30 1 30 -19 0 -14 6 -23 16 -23 12 0 14 7 10 28 -3 15 -8 48 -12 73 -6 46 -6 47 -44 47 -20 0 -42 -4 -49 -11z m67 -45 c4 -28 -24 -40 -45 -19 -21 21 -9 49 19 45 15 -2 24 -11 26 -26z"/>
 <path d="M7952 1318 c-31 -31 -1 -98 44 -98 26 0 40 11 48 38 7 21 4 22 -40 22 -38 0 -44 2 -35 14 6 8 22 11 37 8 20 -4 25 -1 22 9 -6 18 -60 23 -76 7z m55 -69 c-14 -8 -22 -8 -30 0 -8 8 -3 11 19 11 25 -1 27 -2 11 -11z"/>
 <path d="M8123 1309 c4 -13 7 -39 7 -56 0 -20 5 -33 13 -33 18 0 7 102 -12 108 -10 4 -12 -1 -8 -19z"/>
 <path d="M8174 1314 c3 -9 6 -33 6 -54 l0 -39 43 2 42 2 0 49 c0 31 -5 51 -12 54 -9 2 -13 -10 -13 -42 0 -25 -4 -46 -10 -46 -14 0 -30 35 -30 64 0 17 -5 26 -16 26 -11 0 -14 -5 -10 -16z"/>
 <path d="M8296 1278 c3 -61 12 -98 25 -98 5 0 9 9 9 19 0 11 6 22 13 25 9 3 8 8 -5 18 -9 8 -18 29 -20 48 -5 57 -25 46 -22 -12z"/>
 <path d="M8366 1315 c-36 -36 -7 -95 47 -95 25 0 47 23 47 49 0 6 -18 11 -41 11 -28 0 -39 4 -36 13 2 7 16 11 31 9 20 -3 27 0 24 10 -7 19 -53 22 -72 3z m57 -66 c-8 -8 -16 -8 -30 0 -16 9 -14 10 12 11 21 0 26 -3 18 -11z"/>
 <path d="M8478 1275 c4 -54 5 -55 34 -55 l29 0 -20 26 c-12 15 -21 40 -21 55 0 17 -5 29 -12 29 -9 0 -12 -16 -10 -55z"/>
 <path d="M8556 1315 c-36 -36 -7 -95 47 -95 25 0 47 23 47 49 0 6 -18 11 -41 11 -28 0 -39 4 -36 13 2 7 16 11 31 9 20 -3 27 0 24 10 -7 19 -53 22 -72 3z m57 -66 c-8 -8 -16 -8 -30 0 -16 9 -14 10 12 11 21 0 26 -3 18 -11z"/>
 <path d="M8671 1321 c-20 -13 -5 -30 21 -23 l22 5 -22 -28 c-17 -22 -20 -31 -10 -42 14 -17 50 -13 56 6 3 9 -2 11 -17 6 -27 -8 -27 2 2 25 18 15 20 22 11 37 -13 21 -42 27 -63 14z"/>
 <path d="M8757 1324 c-9 -10 2 -24 19 -24 8 0 14 7 14 15 0 15 -21 21 -33 9z"/>
 <path d="M2662 1275 c-25 -51 -26 -55 -13 -55 5 0 16 17 24 38 l15 37 18 -37 c26 -56 36 -46 11 12 -11 28 -24 50 -27 50 -3 0 -16 -20 -28 -45z"/>
 <path d="M7255 1200 c-8 -13 4 -32 16 -25 12 8 12 35 0 35 -6 0 -13 -4 -16 -10z"/>
 <path d="M8140 1196 c0 -9 7 -16 16 -16 9 0 14 5 12 12 -6 18 -28 21 -28 4z"/>
 <path d="M8600 1185 c7 -8 20 -15 28 -15 13 0 12 3 -4 15 -25 19 -40 19 -24 0z"/>
 <path d="M780 1058 l0 -73 41 -3 c49 -3 69 11 69 48 0 38 -32 64 -69 57 -24 -5 -28 -3 -24 12 3 10 0 22 -6 25 -8 5 -11 -16 -11 -66z m84 3 c21 -24 14 -57 -15 -66 -39 -13 -67 43 -37 73 17 17 32 15 52 -7z"/>
 <path d="M2880 1057 l0 -74 45 -1 c37 -2 47 2 60 22 29 45 -13 98 -65 81 -16 -5 -20 -2 -20 19 0 14 -4 26 -10 26 -6 0 -10 -31 -10 -73z m85 7 c20 -20 16 -53 -7 -68 -40 -24 -80 44 -42 71 23 17 29 16 49 -3z"/>
 <path d="M4507 1123 c-4 -3 -7 -36 -7 -73 l0 -67 47 1 c40 1 49 5 62 27 13 24 13 29 -2 53 -18 27 -60 36 -73 14 -5 -8 -2 -9 10 -5 28 11 58 -11 54 -40 -4 -34 -32 -52 -55 -37 -13 8 -19 26 -20 69 -2 60 -5 70 -16 58z"/>
 <path d="M6855 1099 c16 -30 15 -39 -10 -101 -5 -13 -2 -18 9 -18 8 0 18 11 22 25 3 14 9 25 13 25 4 0 13 -11 19 -25 6 -14 18 -25 27 -25 8 0 15 2 15 4 0 17 -85 146 -96 146 -12 0 -12 -5 1 -31z"/>
 <path d="M9840 1105 c0 -13 5 -46 10 -73 11 -47 12 -49 47 -50 43 -2 63 12 63 42 0 38 -29 68 -61 64 -22 -4 -29 0 -34 19 -7 30 -25 30 -25 -2z m85 -74 c0 -30 -17 -37 -38 -16 -21 20 -10 47 17 43 15 -2 21 -10 21 -27z"/>
 <path d="M657 1072 c-21 -23 -22 -65 -3 -81 8 -6 32 -10 55 -9 l41 3 0 50 0 50 -38 3 c-27 1 -44 -3 -55 -16z m61 -4 c30 -30 2 -86 -37 -73 -29 9 -36 42 -15 66 20 22 35 24 52 7z"/>
 <path d="M927 1072 c-34 -37 -11 -92 38 -92 50 0 73 60 37 93 -24 22 -55 21 -75 -1z m61 -4 c30 -30 -2 -93 -36 -71 -21 13 -27 50 -12 69 15 17 32 18 48 2z"/>
 <path d="M1040 1036 c0 -51 1 -53 27 -53 21 0 23 1 10 9 -12 6 -17 23 -17 53 0 25 -4 45 -10 45 -5 0 -10 -24 -10 -54z"/>
 <path d="M1120 1041 c0 -30 -5 -51 -12 -54 -10 -4 -10 -6 0 -6 6 -1 12 -10 12 -21 0 -11 5 -20 11 -20 6 0 8 9 4 20 -4 12 -2 20 5 20 6 0 8 5 4 12 -5 7 -7 29 -5 49 1 20 -2 40 -8 44 -7 4 -11 -11 -11 -44z"/>
 <path d="M1187 1072 c-39 -43 -6 -94 56 -90 l37 3 0 55 c0 38 -3 50 -10 40 -5 -8 -7 -24 -4 -36 6 -22 -18 -54 -40 -54 -33 0 -49 57 -21 80 8 6 23 9 36 5 14 -5 19 -4 15 4 -11 17 -51 13 -69 -7z"/>
 <path d="M1432 1078 c-14 -14 -16 -98 -2 -98 6 0 10 20 10 44 0 31 5 46 16 50 26 10 44 -13 44 -55 0 -47 17 -53 18 -6 2 60 -51 100 -86 65z"/>
 <path d="M1540 1036 l0 -54 42 2 c42 1 43 2 52 44 6 30 6 46 -2 54 -9 9 -12 0 -12 -35 0 -33 -5 -49 -15 -53 -25 -10 -45 16 -45 57 0 22 -4 39 -10 39 -5 0 -10 -24 -10 -54z"/>
 <path d="M1677 1072 c-39 -43 -6 -94 56 -90 l37 3 0 55 c0 38 -3 50 -10 40 -5 -8 -7 -24 -4 -36 6 -22 -18 -54 -40 -54 -33 0 -49 57 -21 80 8 6 23 9 36 5 14 -5 19 -4 15 4 -11 17 -51 13 -69 -7z"/>
 <path d="M1967 1083 c-11 -10 -8 -103 3 -103 6 0 10 25 10 55 0 56 -1 60 -13 48z"/>
 <path d="M2004 1079 c-5 -9 -2 -10 10 -6 27 11 31 -21 5 -41 -14 -12 -20 -25 -16 -35 7 -19 42 -23 53 -6 4 8 0 9 -15 4 -28 -9 -29 20 0 35 27 15 22 54 -8 58 -11 2 -25 -2 -29 -9z"/>
 <path d="M2080 1035 c0 -30 5 -55 10 -55 6 0 10 25 10 55 0 30 -4 55 -10 55 -5 0 -10 -25 -10 -55z"/>
 <path d="M2137 1072 c-34 -37 -11 -92 38 -92 50 0 73 60 37 93 -24 22 -55 21 -75 -1z m61 -4 c30 -30 -2 -93 -36 -71 -21 13 -27 50 -12 69 15 17 32 18 48 2z"/>
 <path d="M2261 1040 c-1 -55 -1 -55 31 -57 17 -1 38 2 45 8 15 13 18 103 3 94 -5 -3 -10 -26 -10 -51 0 -37 -3 -44 -19 -44 -25 0 -33 14 -42 65 -6 39 -7 38 -8 -15z"/>
 <path d="M2447 1072 c-47 -52 25 -121 83 -81 11 8 7 9 -18 4 -39 -8 -62 7 -62 41 0 30 43 55 62 36 17 -17 33 -15 18 3 -17 21 -63 19 -83 -3z"/>
 <path d="M2576 1075 c-19 -19 -21 -66 -4 -83 22 -22 66 -14 85 14 15 24 15 29 2 53 -17 31 -59 39 -83 16z m62 -7 c7 -7 12 -21 12 -33 0 -43 -50 -62 -70 -26 -14 27 -13 37 6 55 19 19 36 20 52 4z"/>
 <path d="M2698 1084 c-5 -4 -8 -29 -8 -54 l0 -47 78 1 77 1 9 36 c5 21 5 45 0 55 -6 15 -9 7 -12 -29 -5 -80 -49 -76 -63 5 l-6 43 -2 -40 c-1 -22 -6 -47 -11 -55 -16 -26 -44 2 -50 49 -3 24 -8 39 -12 35z"/>
 <path d="M3017 1083 c-11 -10 -8 -143 3 -143 6 0 10 32 10 75 0 75 -1 81 -13 68z"/>
 <path d="M3063 1064 c-15 -24 -15 -29 -2 -53 25 -45 99 -38 99 10 0 16 -8 19 -45 19 -47 0 -56 9 -30 30 12 10 21 10 40 2 14 -7 25 -8 25 -3 0 5 -7 12 -16 15 -31 12 -54 6 -71 -20z m75 -56 c-7 -19 -43 -21 -58 -3 -11 13 -8 15 25 15 25 0 35 -4 33 -12z"/>
 <path d="M3200 1041 c0 -30 -5 -51 -12 -54 -10 -4 -10 -6 0 -6 6 -1 12 -10 12 -21 0 -11 5 -20 11 -20 6 0 8 9 4 20 -4 12 -2 20 5 20 6 0 8 5 4 12 -5 7 -7 29 -5 49 1 20 -2 40 -8 44 -7 4 -11 -11 -11 -44z"/>
 <path d="M3267 1072 c-39 -43 -6 -94 56 -90 l37 3 0 55 c0 38 -3 50 -10 40 -5 -8 -7 -24 -4 -36 6 -22 -18 -54 -40 -54 -33 0 -49 57 -21 80 8 6 23 9 36 5 14 -5 19 -4 15 4 -11 17 -51 13 -69 -7z"/>
 <path d="M3453 1064 c-15 -24 -15 -29 -2 -53 12 -21 22 -26 52 -26 32 0 37 -3 37 -22 0 -13 4 -23 10 -23 12 0 12 138 -1 145 -5 4 -9 1 -9 -6 0 -10 -3 -10 -12 -1 -21 21 -56 14 -75 -14z m71 3 c38 -27 -2 -95 -41 -71 -25 16 -29 55 -7 71 10 7 21 13 24 13 3 0 14 -6 24 -13z"/>
 <path d="M3597 1072 c-34 -37 -11 -92 38 -92 26 0 55 24 55 46 0 10 -13 14 -46 14 -47 0 -55 13 -21 34 12 8 21 5 36 -8 22 -20 30 -9 9 12 -18 18 -53 15 -71 -6z m73 -61 c0 -13 -34 -23 -54 -15 -28 11 -18 24 19 24 19 0 35 -4 35 -9z"/>
 <path d="M3773 1015 c0 -44 2 -61 4 -37 2 23 2 59 0 80 -2 20 -4 1 -4 -43z"/>
 <path d="M3832 1083 c-25 -9 -34 -53 -17 -79 13 -20 23 -24 60 -22 l45 1 0 51 0 52 -37 1 c-21 0 -44 -1 -51 -4z m52 -16 c38 -27 -2 -95 -41 -71 -24 15 -28 48 -8 68 20 19 26 20 49 3z"/>
 <path d="M3944 1079 c-5 -9 -2 -10 10 -6 27 11 31 -21 5 -41 -14 -12 -20 -25 -16 -35 7 -19 42 -23 53 -6 4 8 0 9 -15 4 -28 -9 -29 20 0 35 27 15 22 54 -8 58 -11 2 -25 -2 -29 -9z"/>
 <path d="M4102 1083 c-25 -10 -34 -53 -16 -80 13 -20 22 -24 50 -21 30 4 34 1 34 -19 0 -13 5 -23 10 -23 6 0 10 31 10 73 l0 73 -37 1 c-21 0 -44 -1 -51 -4z m52 -16 c38 -27 -2 -95 -41 -71 -24 15 -28 48 -8 68 20 19 26 20 49 3z"/>
 <path d="M4217 1083 c-11 -10 -8 -103 3 -103 6 0 10 25 10 55 0 56 -1 60 -13 48z"/>
 <path d="M4254 1079 c-5 -9 -2 -10 10 -6 27 11 31 -21 5 -41 -14 -12 -20 -25 -16 -35 7 -19 42 -23 53 -6 4 8 0 9 -15 4 -28 -9 -29 20 0 35 27 15 22 54 -8 58 -11 2 -25 -2 -29 -9z"/>
 <path d="M4347 1072 c-47 -52 25 -121 83 -81 11 8 7 9 -18 4 -39 -8 -62 7 -62 41 0 30 43 55 62 36 17 -17 33 -15 18 3 -17 21 -63 19 -83 -3z"/>
 <path d="M4460 1035 c0 -30 5 -55 10 -55 6 0 10 25 10 55 0 30 -4 55 -10 55 -5 0 -10 -25 -10 -55z"/>
 <path d="M4643 1015 c0 -44 2 -61 4 -37 2 23 2 59 0 80 -2 20 -4 1 -4 -43z"/>
 <path d="M4683 1035 c0 -33 2 -45 4 -27 2 18 2 45 0 60 -2 15 -4 0 -4 -33z"/>
 <path d="M4720 1038 l0 -54 43 1 42 0 1 55 c1 47 1 48 -3 10 -5 -53 -14 -64 -42 -55 -17 5 -21 15 -21 45 0 21 -4 42 -10 45 -6 4 -10 -14 -10 -47z"/>
 <path d="M4857 1072 c-21 -23 -22 -65 -3 -81 8 -6 32 -10 55 -9 l41 3 0 50 0 50 -38 3 c-27 1 -44 -3 -55 -16z m61 -4 c30 -30 2 -86 -37 -73 -29 9 -36 42 -15 66 20 22 35 24 52 7z"/>
 <path d="M4975 1080 c-5 -9 -1 -10 13 -6 32 10 37 -13 8 -39 -16 -14 -23 -30 -20 -39 7 -17 39 -22 48 -7 4 5 -3 7 -14 4 -27 -7 -26 18 1 35 27 17 22 56 -8 60 -11 2 -24 -2 -28 -8z"/>
 <path d="M5542 1078 c-18 -18 -14 -63 7 -82 22 -20 72 -18 79 3 3 10 -2 12 -21 7 -17 -4 -31 -1 -42 10 -23 23 -13 39 23 40 38 0 52 12 32 24 -21 14 -64 12 -78 -2z"/>
 <path d="M5664 1065 c-13 -21 -14 -28 -2 -52 12 -24 19 -28 61 -29 52 -2 52 -1 41 67 -6 35 -8 37 -45 37 -31 1 -43 -4 -55 -23z m74 -33 c4 -28 -24 -40 -45 -19 -21 21 -9 49 19 45 15 -2 24 -11 26 -26z"/>
 <path d="M5801 1077 c-34 -34 6 -104 54 -95 21 4 25 1 25 -18 0 -15 6 -24 16 -24 13 0 15 7 11 33 -3 17 -8 50 -12 72 -6 39 -8 41 -44 42 -21 1 -43 -3 -50 -10z m67 -50 c-4 -26 -36 -30 -51 -5 -8 12 -7 21 2 32 18 22 53 3 49 -27z"/>
 <path d="M5932 1078 c-31 -31 1 -98 48 -98 47 0 68 61 32 93 -22 20 -63 22 -80 5z m66 -42 c2 -10 0 -22 -5 -27 -16 -16 -43 2 -43 28 0 20 4 24 22 21 13 -2 24 -11 26 -22z"/>
 <path d="M6105 1033 c8 -74 14 -93 27 -93 7 0 8 22 3 68 -8 72 -11 82 -26 82 -7 0 -8 -21 -4 -57z"/>
 <path d="M6166 1071 c-20 -22 -20 -40 -1 -68 12 -18 25 -22 60 -21 l45 1 -6 41 c-3 22 -7 46 -9 52 -5 18 -71 15 -89 -5z m68 -28 c4 -9 0 -23 -8 -31 -12 -13 -18 -13 -30 -2 -9 7 -16 21 -16 31 0 24 45 26 54 2z"/>
 <path d="M6284 1072 c3 -9 8 -43 12 -74 4 -40 11 -58 20 -58 10 0 13 7 9 23 -6 22 -4 23 24 19 25 -3 32 0 43 23 10 22 9 32 -3 53 -12 23 -22 27 -62 29 -41 1 -47 -1 -43 -15z m84 -40 c4 -29 -26 -42 -44 -18 -17 24 -6 48 20 44 13 -2 22 -12 24 -26z"/>
 <path d="M6425 1066 c-21 -32 -5 -73 31 -82 35 -9 58 6 62 40 7 58 -62 89 -93 42z m73 -32 c4 -25 -24 -40 -44 -23 -8 6 -14 20 -14 31 0 29 54 21 58 -8z"/>
 <path d="M6540 1067 c0 -58 11 -84 36 -84 27 0 31 9 10 27 -8 6 -16 25 -18 42 -4 38 -28 51 -28 15z"/>
 <path d="M6621 1077 c-17 -17 -13 -62 7 -80 11 -10 33 -16 55 -15 40 1 44 11 31 75 -5 25 -10 29 -43 30 -21 1 -43 -3 -50 -10z m67 -50 c-4 -26 -36 -30 -51 -5 -8 12 -7 21 2 32 18 22 53 3 49 -27z"/>
 <path d="M6740 1068 c0 -67 14 -128 28 -128 12 0 13 11 7 68 -4 37 -9 70 -12 75 -9 15 -23 6 -23 -15z"/>
 <path d="M7013 1069 c4 -13 10 -48 13 -76 7 -58 24 -73 23 -20 -1 57 -14 110 -28 115 -10 3 -12 -1 -8 -19z"/>
 <path d="M7076 1071 c-20 -22 -20 -40 -1 -68 12 -18 25 -22 61 -21 l45 1 -7 46 c-8 59 -7 58 -47 59 -22 1 -41 -5 -51 -17z m68 -28 c4 -9 0 -23 -8 -31 -12 -13 -18 -13 -30 -2 -9 7 -16 21 -16 31 0 24 45 26 54 2z"/>
 <path d="M7201 1081 c-7 -5 -10 -14 -6 -20 5 -8 11 -9 19 -2 23 19 27 -2 5 -25 -12 -13 -19 -30 -16 -38 9 -22 57 -21 57 0 0 10 -6 14 -15 10 -20 -7 -19 8 0 24 36 30 -5 76 -44 51z"/>
 <path d="M7352 1078 c-34 -34 4 -105 52 -96 19 4 26 0 30 -19 4 -12 11 -23 17 -23 9 0 4 123 -7 141 -6 11 -80 9 -92 -3z m66 -45 c-4 -32 -20 -39 -41 -18 -21 21 -11 45 20 45 21 0 24 -4 21 -27z"/>
 <path d="M7486 1075 c-36 -36 -7 -95 47 -95 25 0 47 23 47 49 0 6 -18 11 -41 11 -28 0 -39 4 -36 13 2 7 16 11 31 9 20 -3 27 0 24 10 -7 19 -53 22 -72 3z m57 -66 c-8 -8 -16 -8 -30 0 -16 9 -14 10 12 11 21 0 26 -3 18 -11z"/>
 <path d="M7604 1074 c3 -9 6 -33 6 -54 l0 -38 78 2 77 1 0 49 c0 31 -5 51 -12 54 -9 2 -13 -10 -13 -42 0 -25 -4 -46 -9 -46 -15 0 -29 24 -33 54 -1 16 -9 32 -17 34 -11 4 -13 -4 -8 -37 3 -22 1 -44 -4 -47 -18 -11 -39 18 -39 52 0 25 -4 34 -16 34 -11 0 -14 -5 -10 -16z"/>
 <path d="M7801 1077 c-17 -17 -13 -62 7 -80 11 -10 33 -16 55 -15 40 1 44 11 31 75 -5 25 -10 29 -43 30 -21 1 -43 -3 -50 -10z m67 -50 c-4 -26 -36 -30 -51 -5 -8 12 -7 21 2 32 18 22 53 3 49 -27z"/>
 <path d="M7924 1059 c3 -17 6 -42 6 -55 0 -21 4 -23 43 -21 l42 2 0 49 c0 31 -5 51 -12 54 -9 2 -13 -10 -13 -42 0 -25 -4 -46 -8 -46 -18 0 -32 26 -32 57 0 24 -5 33 -16 33 -13 0 -15 -7 -10 -31z"/>
 <path d="M8052 1078 c-34 -34 4 -105 52 -96 19 4 26 0 30 -19 4 -12 11 -23 17 -23 9 0 4 123 -7 141 -6 11 -80 9 -92 -3z m66 -45 c-4 -32 -20 -39 -41 -18 -21 21 -11 45 20 45 21 0 24 -4 21 -27z"/>
 <path d="M8186 1071 c-20 -22 -20 -40 -1 -68 12 -18 25 -22 60 -21 l45 1 -6 41 c-3 22 -7 46 -9 52 -5 18 -71 15 -89 -5z m68 -28 c4 -9 0 -23 -8 -31 -12 -13 -18 -13 -30 -2 -9 7 -16 21 -16 31 0 24 45 26 54 2z"/>
 <path d="M8307 1083 c-14 -14 -6 -23 21 -23 l27 0 -24 -19 c-30 -23 -25 -56 8 -56 14 0 26 6 29 14 3 10 0 12 -12 8 -20 -8 -21 6 -1 23 20 16 19 46 -1 54 -20 8 -39 8 -47 -1z"/>
 <path d="M8444 1063 c3 -16 8 -49 12 -75 4 -33 11 -48 21 -48 12 0 14 9 9 48 -12 85 -17 102 -33 102 -11 0 -13 -7 -9 -27z"/>
 <path d="M8507 1069 c-21 -29 -7 -72 27 -84 35 -12 60 3 64 39 7 56 -61 89 -91 45z m71 -35 c4 -25 -24 -40 -44 -23 -8 6 -14 20 -14 31 0 29 54 21 58 -8z"/>
 <path d="M8637 1072 c-21 -23 -21 -41 -1 -70 12 -18 24 -22 52 -20 19 2 38 9 40 17 4 11 -2 12 -23 7 -32 -8 -55 7 -55 36 0 17 5 20 30 16 34 -5 51 9 29 23 -23 14 -55 10 -72 -9z"/>
 <path d="M8766 1071 c-20 -22 -20 -40 -1 -68 12 -18 25 -22 60 -21 l45 1 -6 41 c-3 22 -7 46 -9 52 -5 18 -71 15 -89 -5z m68 -28 c4 -9 0 -23 -8 -31 -12 -13 -18 -13 -30 -2 -9 7 -16 21 -16 31 0 24 45 26 54 2z"/>
 <path d="M8884 1033 c9 -73 15 -93 27 -93 7 0 8 24 4 68 -8 73 -11 82 -27 82 -7 0 -8 -20 -4 -57z"/>
 <path d="M8947 1072 c-21 -23 -21 -41 -1 -70 27 -39 94 -25 94 20 0 14 -8 18 -40 18 -22 0 -40 5 -40 10 0 11 12 13 48 10 25 -2 30 15 6 24 -28 11 -50 6 -67 -12z m56 -63 c-8 -8 -16 -8 -30 0 -16 9 -14 10 12 11 21 0 26 -3 18 -11z"/>
 <path d="M9067 1084 c-16 -16 -7 -32 15 -26 l22 5 -22 -28 c-17 -22 -20 -31 -10 -42 14 -17 50 -13 56 6 3 9 -2 11 -17 6 -27 -8 -27 2 2 25 18 15 20 22 11 37 -12 19 -45 29 -57 17z"/>
 <path d="M9216 1071 c-20 -22 -20 -40 0 -69 12 -18 24 -23 48 -20 26 2 32 -1 34 -19 2 -13 8 -23 14 -23 9 0 3 124 -8 141 -8 14 -72 7 -88 -10z m68 -28 c4 -9 0 -23 -8 -31 -12 -13 -18 -13 -30 -2 -9 7 -16 21 -16 31 0 24 45 26 54 2z"/>
 <path d="M9350 1075 c-18 -22 -15 -66 6 -82 28 -20 67 -12 81 17 12 25 12 25 -32 28 -25 2 -45 7 -45 13 0 10 12 12 49 9 15 -1 22 3 19 12 -7 19 -62 22 -78 3z m52 -67 c-9 -9 -15 -9 -24 0 -9 9 -7 12 12 12 19 0 21 -3 12 -12z"/>
 <path d="M9519 1078 c-2 -17 1 -48 6 -73 2 -11 4 -30 4 -42 1 -14 7 -23 17 -23 14 0 15 9 9 68 -4 37 -9 70 -12 75 -7 11 -23 8 -24 -5z"/>
 <path d="M9581 1077 c-17 -17 -13 -62 7 -80 11 -10 33 -16 55 -15 34 1 37 3 37 32 0 60 -8 72 -49 73 -21 1 -43 -3 -50 -10z m67 -50 c-4 -26 -36 -30 -51 -5 -8 12 -7 21 2 32 18 22 53 3 49 -27z"/>
 <path d="M9707 1084 c-16 -16 -6 -32 16 -26 22 5 22 5 4 -16 -25 -28 -19 -57 12 -57 14 0 26 6 29 14 3 9 -1 11 -17 6 -27 -8 -27 2 2 25 18 15 20 22 11 37 -12 19 -45 29 -57 17z"/>
 <path d="M9970 1073 c0 -10 3 -35 6 -55 6 -32 11 -38 30 -38 27 0 31 12 10 30 -8 6 -16 25 -18 42 -3 34 -28 52 -28 21z"/>
 <path d="M10052 1078 c-18 -18 -14 -63 6 -81 40 -36 92 -13 92 41 0 41 -69 69 -98 40z m66 -42 c2 -10 0 -22 -5 -27 -16 -16 -43 2 -43 28 0 20 4 24 22 21 13 -2 24 -11 26 -22z"/>
 <path d="M1872 1035 c-25 -51 -26 -55 -13 -55 5 0 16 17 24 38 l15 37 18 -37 c26 -56 36 -46 11 12 -11 28 -24 50 -27 50 -3 0 -16 -20 -28 -45z"/>
 <path d="M10176 1035 c4 -8 17 -15 30 -15 15 0 24 6 24 15 0 10 -10 15 -30 15 -22 0 -28 -4 -24 -15z"/>
 <path d="M2170 945 c7 -8 17 -15 22 -15 6 0 5 7 -2 15 -7 8 -17 15 -22 15 -6 0 -5 -7 2 -15z"/>
 <path d="M1910 817 l0 -74 44 -1 c35 -2 48 2 59 18 30 44 -7 99 -59 86 -21 -6 -24 -3 -24 19 0 14 -4 25 -10 25 -6 0 -10 -31 -10 -73z m85 7 c20 -20 16 -53 -7 -68 -40 -24 -80 44 -42 71 23 17 29 16 49 -3z"/>
 <path d="M4438 815 c2 -41 8 -75 13 -75 13 0 7 142 -6 147 -6 2 -9 -25 -7 -72z"/>
 <path d="M7144 863 c3 -16 8 -49 12 -75 6 -47 7 -48 43 -48 44 0 61 14 61 50 0 37 -32 64 -65 56 -22 -6 -25 -3 -25 19 0 16 -6 25 -16 25 -12 0 -14 -7 -10 -27z m94 -69 c4 -25 -24 -40 -44 -23 -8 6 -14 20 -14 31 0 29 54 21 58 -8z"/>
 <path d="M787 832 c-37 -40 -8 -95 46 -90 17 2 33 10 35 18 5 13 3 13 -11 1 -22 -18 -64 -6 -72 20 -5 15 -1 28 14 42 17 18 24 19 46 9 14 -6 25 -8 25 -3 0 25 -61 27 -83 3z"/>
 <path d="M903 775 c0 -44 2 -61 4 -37 2 23 2 59 0 80 -2 20 -4 1 -4 -43z"/>
 <path d="M962 843 c-25 -9 -34 -53 -17 -79 13 -20 23 -24 60 -22 l45 1 0 51 0 52 -37 1 c-21 0 -44 -1 -51 -4z m52 -16 c38 -27 -2 -95 -41 -71 -24 15 -28 48 -8 68 20 19 26 20 49 3z"/>
 <path d="M1070 796 c0 -51 1 -53 27 -53 21 0 23 1 10 9 -12 6 -17 23 -17 53 0 25 -4 45 -10 45 -5 0 -10 -24 -10 -54z"/>
 <path d="M1137 843 c-11 -10 -8 -103 3 -103 6 0 10 25 10 55 0 56 -1 60 -13 48z"/>
 <path d="M1183 824 c-15 -24 -15 -29 -2 -53 12 -21 22 -26 52 -26 32 0 37 -3 37 -22 0 -13 4 -23 10 -23 12 0 12 138 -1 145 -5 4 -9 1 -9 -6 0 -10 -3 -10 -12 -1 -21 21 -56 14 -75 -14z m71 3 c38 -27 -2 -95 -41 -71 -25 16 -29 55 -7 71 10 7 21 13 24 13 3 0 14 -6 24 -13z"/>
 <path d="M1327 832 c-39 -43 -6 -94 56 -90 l37 3 0 55 c0 38 -3 50 -10 40 -5 -8 -7 -24 -4 -36 6 -22 -18 -54 -40 -54 -33 0 -49 57 -21 80 8 6 23 9 36 5 14 -5 19 -4 15 4 -11 17 -51 13 -69 -7z"/>
 <path d="M1467 832 c-21 -23 -22 -65 -2 -82 8 -7 28 -10 45 -8 26 4 30 1 30 -19 0 -13 5 -23 10 -23 6 0 10 31 10 73 l0 72 -38 3 c-27 1 -44 -3 -55 -16z m61 -4 c30 -30 2 -86 -37 -73 -29 9 -36 42 -15 66 20 22 35 24 52 7z"/>
 <path d="M1641 800 c-1 -54 0 -56 27 -57 15 0 19 1 10 4 -11 3 -20 18 -23 41 -11 66 -13 68 -14 12z"/>
 <path d="M1717 832 c-34 -37 -11 -92 38 -92 26 0 55 24 55 46 0 10 -13 14 -46 14 -47 0 -55 13 -21 34 12 8 21 5 36 -8 22 -20 30 -9 9 12 -18 18 -53 15 -71 -6z m73 -61 c0 -13 -34 -23 -54 -15 -28 11 -18 24 19 24 19 0 35 -4 35 -9z"/>
 <path d="M1834 838 c-5 -8 -2 -9 9 -5 27 10 31 -13 7 -38 -13 -14 -20 -31 -17 -39 7 -18 43 -21 53 -5 4 8 0 9 -15 4 -15 -5 -21 -2 -21 10 0 8 6 18 14 21 21 8 28 34 15 50 -14 17 -35 18 -45 2z"/>
 <path d="M2053 824 c-15 -24 -15 -29 -2 -53 25 -45 99 -38 99 10 0 16 -8 19 -45 19 -47 0 -56 9 -30 30 12 10 21 10 40 2 14 -7 25 -8 25 -3 0 5 -7 12 -16 15 -31 12 -54 6 -71 -20z m75 -56 c-7 -19 -43 -21 -58 -3 -11 13 -8 15 25 15 25 0 35 -4 33 -12z"/>
 <path d="M2190 830 c-24 -24 -25 -38 -4 -68 12 -18 24 -22 52 -20 19 2 37 8 39 15 3 9 -3 9 -26 0 -23 -8 -33 -8 -45 2 -42 35 4 98 53 72 11 -7 21 -8 21 -2 0 5 -7 12 -16 15 -29 11 -54 6 -74 -14z"/>
 <path d="M2320 801 c0 -30 -5 -51 -12 -54 -10 -4 -10 -6 0 -6 6 -1 12 -10 12 -21 0 -11 5 -20 11 -20 6 0 8 9 4 20 -4 12 -2 20 5 20 6 0 8 5 4 12 -5 7 -7 29 -5 49 1 20 -2 40 -8 44 -7 4 -11 -11 -11 -44z"/>
 <path d="M2387 832 c-34 -37 -11 -92 38 -92 50 0 73 60 37 93 -24 22 -55 21 -75 -1z m61 -4 c30 -30 -2 -93 -36 -71 -21 13 -27 50 -12 69 15 17 32 18 48 2z"/>
 <path d="M2577 832 c-21 -23 -22 -65 -3 -81 8 -6 32 -10 55 -9 l41 3 0 50 0 50 -38 3 c-27 1 -44 -3 -55 -16z m61 -4 c30 -30 2 -86 -37 -73 -29 9 -36 42 -15 66 20 22 35 24 52 7z"/>
 <path d="M2697 843 c-11 -10 -8 -143 3 -143 6 0 10 32 10 75 0 75 -1 81 -13 68z"/>
 <path d="M2790 797 l0 -54 40 -1 c24 -1 40 3 40 9 0 8 4 8 14 -1 8 -6 25 -10 38 -8 21 3 23 9 24 58 l2 55 -7 -47 c-8 -56 -16 -66 -39 -52 -11 7 -18 27 -20 53 -4 54 -22 43 -22 -15 0 -29 -4 -44 -13 -44 -23 0 -37 23 -37 62 0 21 -4 38 -10 38 -5 0 -10 -24 -10 -53z"/>
 <path d="M2992 838 c-7 -7 -11 -32 -10 -57 l1 -46 4 42 c8 81 63 83 74 2 l6 -44 1 46 c2 49 -10 69 -43 69 -12 0 -26 -5 -33 -12z"/>
 <path d="M3100 796 l0 -54 42 2 c42 1 43 2 52 44 6 30 6 46 -2 54 -9 9 -12 0 -12 -35 0 -33 -5 -49 -15 -53 -25 -10 -45 16 -45 57 0 22 -4 39 -10 39 -5 0 -10 -24 -10 -54z"/>
 <path d="M3237 832 c-38 -41 -3 -100 52 -89 27 6 30 3 34 -21 2 -15 5 9 5 53 1 54 -1 75 -8 65 -5 -8 -7 -24 -4 -36 6 -22 -18 -54 -40 -54 -33 0 -49 57 -21 80 8 6 23 9 36 5 14 -5 19 -4 15 4 -11 17 -51 13 -69 -7z"/>
 <path d="M3376 835 c-19 -19 -21 -66 -4 -83 22 -22 66 -14 85 14 15 24 15 29 2 53 -17 31 -59 39 -83 16z m62 -7 c7 -7 12 -21 12 -33 0 -43 -50 -62 -70 -26 -14 27 -13 37 6 55 19 19 36 20 52 4z"/>
 <path d="M3553 824 c-15 -24 -15 -29 -2 -53 12 -21 22 -26 52 -26 32 0 37 -3 37 -22 0 -13 4 -23 10 -23 12 0 12 138 -1 145 -5 4 -9 1 -9 -6 0 -10 -3 -10 -12 -1 -21 21 -56 14 -75 -14z m71 3 c22 -16 18 -55 -6 -71 -40 -24 -80 44 -42 71 10 7 21 13 24 13 3 0 14 -6 24 -13z"/>
 <path d="M3697 832 c-34 -37 -11 -92 38 -92 26 0 55 24 55 46 0 10 -13 14 -46 14 -47 0 -55 13 -21 34 12 8 21 5 36 -8 22 -20 30 -9 9 12 -18 18 -53 15 -71 -6z m73 -61 c0 -13 -34 -23 -54 -15 -28 11 -18 24 19 24 19 0 35 -4 35 -9z"/>
 <path d="M3810 775 c0 -43 4 -75 10 -75 6 0 10 32 10 75 0 43 -4 75 -10 75 -6 0 -10 -32 -10 -75z"/>
 <path d="M3920 801 c0 -30 -5 -51 -12 -54 -10 -4 -10 -6 0 -6 6 -1 12 -10 12 -21 0 -11 5 -20 10 -20 6 0 10 9 10 19 0 11 6 22 13 24 10 4 10 6 0 6 -9 1 -13 18 -13 51 0 28 -4 50 -10 50 -5 0 -10 -22 -10 -49z"/>
 <path d="M3970 796 c0 -51 1 -53 27 -53 21 0 23 1 10 9 -12 6 -17 23 -17 53 0 25 -4 45 -10 45 -5 0 -10 -24 -10 -54z"/>
 <path d="M4043 824 c-15 -24 -15 -29 -2 -53 12 -21 22 -26 56 -27 l41 -1 7 45 c4 27 2 49 -4 55 -8 8 -11 7 -11 -3 0 -11 -3 -11 -12 -2 -21 21 -56 14 -75 -14z m71 3 c38 -27 -2 -95 -41 -71 -25 16 -29 55 -7 71 10 7 21 13 24 13 3 0 14 -6 24 -13z"/>
 <path d="M4177 843 c-11 -10 -8 -143 3 -143 6 0 10 11 10 24 0 23 3 24 34 19 29 -4 37 -1 52 22 16 25 16 30 3 54 -16 29 -55 40 -73 20 -8 -9 -7 -10 7 -6 30 11 59 -11 55 -40 -7 -63 -73 -54 -73 10 -1 38 -7 52 -18 40z"/>
 <path d="M4327 832 c-21 -23 -22 -65 -3 -81 8 -6 32 -10 55 -9 l41 3 0 50 0 50 -38 3 c-27 1 -44 -3 -55 -16z m61 -4 c30 -30 2 -86 -37 -73 -29 9 -36 42 -15 66 20 22 35 24 52 7z"/>
 <path d="M4493 824 c-15 -24 -15 -29 -2 -53 16 -29 61 -40 85 -20 8 6 14 24 14 40 0 58 -65 81 -97 33z m71 0 c19 -18 20 -28 6 -55 -20 -36 -70 -17 -70 26 0 41 36 58 64 29z"/>
 <path d="M4740 801 c0 -30 -5 -51 -12 -54 -10 -4 -10 -6 0 -6 6 -1 12 -10 12 -21 0 -11 5 -20 10 -20 6 0 10 9 10 19 0 11 6 22 13 24 10 4 10 6 0 6 -9 1 -13 18 -13 51 0 28 -4 50 -10 50 -5 0 -10 -22 -10 -49z"/>
 <path d="M4803 824 c-15 -24 -15 -29 -2 -53 25 -45 99 -38 99 10 0 16 -8 19 -45 19 -47 0 -56 9 -30 30 12 10 21 10 40 2 14 -7 25 -8 25 -3 0 5 -7 12 -16 15 -31 12 -54 6 -71 -20z m75 -56 c-7 -19 -43 -21 -58 -3 -11 13 -8 15 25 15 25 0 35 -4 33 -12z"/>
 <path d="M5547 832 c-21 -23 -21 -41 -1 -70 12 -18 24 -23 48 -20 26 2 32 -1 34 -19 2 -13 8 -23 13 -23 10 0 11 47 1 105 -7 37 -10 40 -43 42 -25 2 -41 -3 -52 -15z m67 -29 c4 -9 0 -23 -8 -31 -12 -13 -18 -13 -30 -2 -9 7 -16 21 -16 31 0 24 45 26 54 2z"/>
 <path d="M5660 833 c0 -46 14 -93 26 -93 11 0 13 10 8 43 -3 23 -7 48 -10 55 -5 18 -24 15 -24 -5z"/>
 <path d="M5726 831 c-20 -22 -20 -40 0 -69 12 -18 24 -23 48 -20 26 2 32 -1 34 -19 2 -13 8 -23 14 -23 9 0 3 124 -8 141 -8 14 -72 7 -88 -10z m68 -28 c4 -9 0 -23 -8 -31 -12 -13 -18 -13 -30 -2 -9 7 -16 21 -16 31 0 24 45 26 54 2z"/>
 <path d="M5856 831 c-20 -22 -20 -40 -1 -68 12 -18 25 -22 60 -21 l45 1 -6 41 c-3 22 -7 46 -9 52 -5 18 -71 15 -89 -5z m68 -28 c4 -9 0 -23 -8 -31 -12 -13 -18 -13 -30 -2 -9 7 -16 21 -16 31 0 24 45 26 54 2z"/>
 <path d="M5984 825 c-13 -21 -14 -28 -2 -52 11 -23 20 -28 51 -28 32 0 37 -3 37 -22 0 -14 6 -23 15 -23 18 0 18 5 3 85 l-11 63 -39 0 c-30 1 -42 -5 -54 -23z m74 -33 c4 -28 -24 -40 -45 -19 -21 21 -9 49 19 45 15 -2 24 -11 26 -26z"/>
 <path d="M6177 832 c-21 -23 -21 -41 -1 -70 27 -39 94 -25 94 20 0 14 -8 18 -40 18 -22 0 -40 5 -40 10 0 11 12 13 48 10 25 -2 30 15 6 24 -28 11 -50 6 -67 -12z m56 -63 c-8 -8 -16 -8 -30 0 -16 9 -14 10 12 11 21 0 26 -3 18 -11z"/>
 <path d="M6303 796 c10 -54 10 -54 46 -52 l36 1 0 49 c0 33 -5 51 -14 54 -11 4 -13 -4 -8 -37 3 -24 1 -44 -5 -48 -16 -9 -38 26 -38 59 0 17 -5 28 -13 28 -11 0 -12 -11 -4 -54z"/>
 <path d="M6464 823 c3 -16 8 -49 12 -75 4 -33 11 -48 21 -48 12 0 14 9 9 48 -12 85 -17 102 -33 102 -11 0 -13 -7 -9 -27z"/>
 <path d="M6531 837 c-15 -15 -14 -72 3 -86 7 -6 32 -10 55 -9 44 1 46 4 35 69 -6 34 -9 37 -44 37 -20 0 -42 -4 -49 -11z m67 -45 c4 -28 -24 -40 -45 -19 -21 21 -9 49 19 45 15 -2 24 -11 26 -26z"/>
 <path d="M6717 832 c-21 -23 -21 -41 -1 -70 12 -18 24 -22 52 -20 19 2 38 9 40 17 4 11 -2 12 -23 7 -32 -8 -55 7 -55 36 0 17 5 20 30 16 34 -5 51 9 29 23 -23 14 -55 10 -72 -9z"/>
 <path d="M6846 834 c-22 -21 -20 -50 4 -74 38 -38 90 -20 90 30 0 50 -60 78 -94 44z m68 -31 c4 -9 0 -23 -8 -31 -12 -13 -18 -13 -30 -2 -9 7 -16 21 -16 31 0 24 45 26 54 2z"/>
 <path d="M6968 796 l4 -53 74 -1 c41 0 77 4 80 10 9 14 -6 98 -17 98 -5 0 -9 -20 -9 -45 0 -25 -4 -45 -9 -45 -15 0 -29 24 -33 54 -1 16 -9 32 -17 34 -11 4 -13 -4 -8 -37 3 -22 1 -44 -4 -47 -18 -11 -39 18 -39 52 0 21 -5 34 -12 34 -9 0 -12 -16 -10 -54z"/>
 <path d="M7275 833 c2 -10 6 -34 10 -54 5 -31 9 -36 31 -36 22 0 23 1 11 16 -8 9 -17 33 -21 54 -4 21 -13 37 -21 37 -7 0 -12 -8 -10 -17z"/>
 <path d="M7357 832 c-21 -23 -21 -41 -1 -70 27 -39 94 -25 94 20 0 14 -8 18 -40 18 -22 0 -40 5 -40 10 0 11 12 13 48 10 25 -2 30 15 6 24 -28 11 -50 6 -67 -12z m56 -63 c-8 -8 -16 -8 -30 0 -16 9 -14 10 12 11 21 0 26 -3 18 -11z"/>
 <path d="M7483 796 c10 -54 10 -54 46 -52 l36 1 0 49 c0 33 -5 51 -14 54 -11 4 -13 -4 -8 -37 3 -24 1 -44 -5 -48 -16 -9 -38 26 -38 59 0 17 -5 28 -13 28 -11 0 -12 -11 -4 -54z"/>
 <path d="M7597 843 c-14 -14 -6 -23 21 -23 l27 0 -24 -19 c-30 -23 -25 -56 8 -56 14 0 26 6 29 14 3 10 -2 11 -19 6 l-24 -7 23 24 c12 13 22 31 22 40 0 22 -47 38 -63 21z"/>
 <path d="M7684 795 c13 -72 33 -74 26 -3 -3 37 -10 54 -20 56 -14 2 -15 -5 -6 -53z"/>
 <path d="M7742 838 c-18 -18 -14 -63 7 -82 50 -45 114 12 77 68 -18 28 -63 35 -84 14z m63 -48 c0 -32 -30 -39 -45 -10 -14 26 -4 42 23 38 16 -2 22 -10 22 -28z"/>
 <path d="M7860 818 c0 -66 9 -79 49 -76 36 3 36 3 39 56 2 42 0 52 -13 52 -12 0 -15 -9 -13 -42 2 -33 -1 -43 -12 -43 -9 0 -18 15 -24 43 -10 50 -26 56 -26 10z"/>
 <path d="M8046 831 c-20 -22 -20 -40 0 -69 12 -18 24 -23 48 -20 26 2 32 -1 34 -19 2 -13 8 -23 14 -23 9 0 3 124 -8 141 -8 14 -72 7 -88 -10z m68 -28 c4 -9 0 -23 -8 -31 -12 -13 -18 -13 -30 -2 -9 7 -16 21 -16 31 0 24 45 26 54 2z"/>
 <path d="M8177 832 c-21 -23 -21 -41 -1 -70 27 -39 94 -25 94 20 0 14 -8 18 -40 18 -22 0 -40 5 -40 10 0 11 12 13 48 10 25 -2 30 15 6 24 -28 11 -50 6 -67 -12z m56 -63 c-8 -8 -16 -8 -30 0 -16 9 -14 10 12 11 21 0 26 -3 18 -11z"/>
 <path d="M8361 837 c-34 -34 6 -104 54 -95 21 4 25 1 25 -18 0 -15 6 -24 16 -24 13 0 15 7 11 33 -3 17 -8 50 -12 72 -6 39 -8 41 -44 42 -21 1 -43 -3 -50 -10z m67 -50 c-4 -26 -36 -30 -51 -5 -8 12 -7 21 2 32 18 22 53 3 49 -27z"/>
 <path d="M8480 826 c0 -38 12 -86 21 -86 10 0 12 35 3 79 -8 36 -24 42 -24 7z"/>
 <path d="M8530 833 c0 -10 3 -35 6 -55 6 -36 8 -38 45 -38 47 0 52 8 43 65 -9 60 -30 60 -26 0 6 -65 -32 -56 -40 9 -3 32 -28 49 -28 19z"/>
 <path d="M8661 837 c-17 -17 -13 -62 7 -80 11 -10 33 -16 55 -15 40 1 44 11 31 75 -5 25 -10 29 -43 30 -21 1 -43 -3 -50 -10z m67 -50 c-4 -26 -36 -30 -51 -5 -8 12 -7 21 2 32 18 22 53 3 49 -27z"/>
 <path d="M8784 819 c3 -17 6 -42 6 -54 0 -22 3 -23 78 -21 l77 1 0 49 c0 31 -5 51 -12 54 -9 2 -13 -10 -13 -42 0 -25 -4 -46 -9 -46 -15 0 -29 24 -33 54 -1 16 -9 32 -17 34 -11 4 -13 -4 -8 -37 3 -22 1 -44 -4 -47 -18 -11 -39 18 -39 52 0 25 -4 34 -16 34 -13 0 -15 -7 -10 -31z"/>
 <path d="M8970 798 c6 -59 30 -80 30 -26 0 46 -10 78 -24 78 -8 0 -10 -16 -6 -52z"/>
 <path d="M9027 830 c-18 -26 -10 -68 15 -81 25 -13 70 -8 76 10 3 10 -3 12 -25 7 -34 -8 -59 13 -49 40 5 12 14 15 35 11 34 -7 45 1 30 20 -17 20 -66 16 -82 -7z"/>
 <path d="M9156 831 c-20 -22 -20 -40 -1 -68 12 -18 25 -22 61 -21 l45 1 -7 46 c-8 59 -7 58 -47 59 -22 1 -41 -5 -51 -17z m68 -28 c4 -9 0 -23 -8 -31 -12 -13 -18 -13 -30 -2 -9 7 -16 21 -16 31 0 24 45 26 54 2z"/>
 <path d="M9281 841 c-7 -5 -10 -14 -6 -20 5 -8 11 -9 19 -2 23 19 27 -2 5 -25 -12 -13 -19 -30 -16 -38 9 -22 57 -21 57 0 0 10 -6 14 -15 10 -20 -7 -19 8 0 24 36 30 -5 76 -44 51z"/>
 <path d="M9432 838 c-34 -34 4 -105 52 -96 19 4 26 0 30 -19 4 -12 11 -23 17 -23 9 0 4 123 -7 141 -6 11 -80 9 -92 -3z m66 -45 c-4 -32 -20 -39 -41 -18 -21 21 -11 45 20 45 21 0 24 -4 21 -27z"/>
 <path d="M9567 832 c-21 -23 -21 -41 -1 -70 27 -39 94 -25 94 20 0 14 -8 18 -40 18 -22 0 -40 5 -40 10 0 11 12 13 48 10 25 -2 30 15 6 24 -28 11 -50 6 -67 -12z m56 -63 c-8 -8 -16 -8 -30 0 -16 9 -14 10 12 11 21 0 26 -3 18 -11z"/>
 <path d="M9680 828 c0 -65 14 -128 27 -128 11 0 13 12 8 63 -4 34 -8 68 -10 75 -7 21 -25 13 -25 -10z"/>
 <path d="M9793 796 l10 -53 71 1 71 1 0 49 c0 33 -5 51 -14 54 -11 4 -13 -4 -8 -37 3 -24 1 -44 -5 -48 -16 -9 -38 26 -38 59 0 19 -5 28 -16 28 -13 0 -15 -7 -9 -39 4 -26 2 -41 -6 -47 -17 -10 -39 23 -39 58 0 17 -5 28 -13 28 -11 0 -12 -11 -4 -54z"/>
 <path d="M9986 835 c-36 -36 -7 -95 47 -95 25 0 47 23 47 49 0 6 -18 11 -41 11 -28 0 -39 4 -36 13 2 7 16 11 31 9 20 -3 27 0 24 10 -7 19 -53 22 -72 3z m57 -66 c-8 -8 -16 -8 -30 0 -16 9 -14 10 12 11 21 0 26 -3 18 -11z"/>
 <path d="M10090 845 c0 -2 5 -26 11 -53 9 -43 13 -49 35 -49 22 0 23 1 11 16 -8 9 -17 33 -21 54 -4 23 -13 37 -21 37 -8 0 -15 -2 -15 -5z"/>
 <path d="M10170 796 c0 -11 10 -16 31 -16 38 0 35 24 -4 28 -19 2 -27 -1 -27 -12z"/>
 <path d="M5677 715 c-4 -8 -3 -16 1 -19 13 -8 35 11 28 23 -10 15 -23 14 -29 -4z"/>
 <path d="M7690 715 c0 -8 9 -15 20 -15 13 0 18 5 14 15 -4 8 -12 15 -20 15 -8 0 -14 -7 -14 -15z"/>
 <path d="M8497 723 c-12 -11 -8 -23 8 -23 8 0 15 7 15 15 0 16 -12 20 -23 8z"/>
 <path d="M8982 714 c4 -21 22 -23 26 -1 2 10 -3 17 -13 17 -10 0 -15 -6 -13 -16z"/>
 <path d="M7799 700 c30 -26 49 -26 26 0 -10 11 -25 20 -34 20 -12 -1 -10 -5 8 -20z"/>
 <path d="M8710 710 c0 -9 32 -30 46 -30 4 0 -1 9 -11 20 -19 21 -35 26 -35 10z"/>
 <path d="M2447 643 c-4 -3 -7 -14 -7 -23 0 -13 -6 -16 -25 -12 -33 6 -65 -23 -65 -58 0 -37 20 -51 69 -48 l41 3 0 73 c0 72 -1 78 -13 65z m-19 -55 c30 -30 2 -86 -37 -73 -29 9 -36 42 -15 66 20 22 35 24 52 7z"/>
 <path d="M2797 643 c-4 -3 -7 -36 -7 -73 l0 -67 47 1 c40 1 49 5 62 27 13 24 13 29 -2 53 -18 27 -60 36 -73 14 -5 -8 -2 -9 10 -5 28 11 58 -11 54 -40 -4 -34 -32 -52 -55 -37 -13 8 -19 26 -20 69 -2 60 -5 70 -16 58z"/>
 <path d="M3530 577 l0 -74 45 -1 c37 -2 47 2 60 22 29 45 -13 98 -65 81 -16 -5 -20 -2 -20 19 0 14 -4 26 -10 26 -6 0 -10 -31 -10 -73z m85 7 c20 -20 16 -53 -7 -68 -40 -24 -80 44 -42 71 23 17 29 16 49 -3z"/>
 <path d="M9206 633 c10 -23 10 -70 0 -105 -11 -39 11 -37 27 2 l13 29 18 -29 c9 -17 23 -30 30 -30 9 0 0 26 -26 75 -23 44 -46 75 -55 75 -11 0 -13 -5 -7 -17z"/>
 <path d="M9560 628 c0 -13 3 -46 6 -74 l6 -52 44 0 c45 -1 64 15 64 52 0 27 -39 58 -68 54 -22 -2 -28 2 -30 20 -2 12 -8 22 -13 22 -5 0 -9 -10 -9 -22z m88 -81 c-4 -29 -34 -33 -48 -7 -9 16 -8 25 0 35 18 21 52 0 48 -28z"/>
 <path d="M6730 599 c7 -11 14 -19 16 -16 7 7 -7 37 -17 37 -6 0 -5 -9 1 -21z"/>
 <path d="M850 540 c0 -40 4 -70 10 -70 6 0 10 27 10 60 0 53 2 60 19 60 11 0 23 5 26 10 4 6 -8 10 -29 10 l-36 0 0 -70z"/>
 <path d="M957 592 c-21 -23 -22 -65 -3 -81 8 -6 32 -10 55 -9 l41 3 0 50 0 50 -38 3 c-27 1 -44 -3 -55 -16z m61 -4 c30 -30 2 -86 -37 -73 -29 9 -36 42 -15 66 20 22 35 24 52 7z"/>
 <path d="M1130 555 c0 -31 4 -54 8 -51 12 7 14 93 2 101 -6 4 -10 -14 -10 -50z"/>
 <path d="M1178 604 c-5 -4 -8 -28 -8 -54 l0 -47 40 -1 c30 -1 42 3 50 17 13 25 13 91 0 91 -5 0 -10 -20 -10 -45 0 -78 -56 -71 -62 7 -2 22 -6 36 -10 32z"/>
 <path d="M1298 554 c-4 -66 5 -94 29 -93 11 0 13 3 6 6 -7 2 -13 11 -13 18 0 7 6 16 13 18 10 4 10 6 0 6 -9 1 -13 18 -13 51 0 68 -17 64 -22 -6z"/>
 <path d="M1363 584 c-15 -24 -15 -29 -2 -53 16 -29 61 -40 85 -20 8 6 14 24 14 40 0 58 -65 81 -97 33z m71 0 c19 -18 20 -28 6 -55 -20 -36 -70 -17 -70 26 0 41 36 58 64 29z"/>
 <path d="M1488 604 c-4 -6 -7 -31 -6 -56 0 -44 1 -45 32 -45 17 0 23 2 14 4 -18 5 -25 23 -30 78 -2 17 -6 25 -10 19z"/>
 <path d="M1550 560 c0 -55 0 -55 32 -57 17 -1 37 2 44 8 8 7 14 7 19 -1 10 -16 52 -12 59 6 10 26 7 96 -4 89 -5 -3 -10 -26 -10 -51 0 -29 -4 -44 -13 -44 -23 0 -37 23 -37 62 0 55 -18 47 -22 -9 -3 -40 -6 -48 -23 -48 -16 0 -21 8 -23 40 -5 63 -22 67 -22 5z"/>
 <path d="M1743 584 c-15 -24 -15 -29 -2 -53 12 -22 22 -26 60 -27 l45 -2 2 49 c1 26 -3 51 -8 54 -6 3 -10 1 -10 -6 0 -10 -3 -10 -12 -1 -21 21 -56 14 -75 -14z m71 3 c38 -27 -2 -95 -41 -71 -25 16 -29 55 -7 71 10 7 21 13 24 13 3 0 14 -6 24 -13z"/>
 <path d="M1887 592 c-47 -52 25 -121 83 -81 11 8 7 9 -18 4 -39 -8 -62 7 -62 41 0 30 43 55 62 36 17 -17 33 -15 18 3 -17 21 -63 19 -83 -3z"/>
 <path d="M2000 556 c0 -31 4 -56 8 -56 13 0 14 97 2 105 -6 4 -10 -14 -10 -49z"/>
 <path d="M2056 595 c-19 -19 -21 -66 -4 -83 22 -22 66 -14 85 14 15 24 15 29 2 53 -17 31 -59 39 -83 16z m62 -7 c7 -7 12 -21 12 -33 0 -43 -50 -62 -70 -26 -14 27 -13 37 6 55 19 19 36 20 52 4z"/>
 <path d="M2178 604 c-5 -4 -8 -28 -8 -54 l0 -47 40 -1 c30 -1 42 3 50 17 13 25 13 91 0 91 -5 0 -10 -20 -10 -45 0 -78 -56 -71 -62 7 -2 22 -6 36 -10 32z"/>
 <path d="M2496 588 c-18 -25 -22 -88 -6 -88 6 0 10 17 10 39 0 41 20 67 45 57 10 -4 15 -19 15 -51 0 -25 5 -45 10 -45 14 0 12 84 -2 98 -19 19 -55 14 -72 -10z"/>
 <path d="M2620 595 c-7 -8 -12 -26 -12 -40 0 -34 19 -55 51 -55 32 0 51 16 51 43 0 16 -7 18 -42 16 -33 -2 -42 1 -40 12 5 19 24 30 42 23 38 -15 44 -15 26 0 -25 20 -60 21 -76 1z m70 -70 c-7 -8 -20 -15 -30 -15 -10 0 -23 7 -30 15 -11 13 -7 15 30 15 37 0 41 -2 30 -15z"/>
 <path d="M2946 595 c-19 -19 -21 -66 -4 -83 22 -22 66 -14 85 14 15 24 15 29 2 53 -17 31 -59 39 -83 16z m62 -7 c7 -7 12 -21 12 -33 0 -43 -50 -62 -70 -26 -14 27 -13 37 6 55 19 19 36 20 52 4z"/>
 <path d="M3054 599 c-4 -7 0 -9 14 -5 30 10 39 -14 13 -35 -12 -10 -21 -26 -19 -36 3 -19 48 -32 48 -14 0 6 -6 8 -14 5 -25 -10 -26 13 -1 36 19 18 22 27 14 41 -11 21 -44 25 -55 8z"/>
 <path d="M3150 595 c-7 -8 -12 -26 -12 -40 0 -34 19 -55 51 -55 32 0 51 16 51 43 0 16 -7 18 -42 16 -33 -2 -42 1 -40 12 5 19 24 30 42 23 38 -15 44 -15 26 0 -25 20 -60 21 -76 1z m70 -70 c-7 -8 -20 -15 -30 -15 -10 0 -23 7 -30 15 -11 13 -7 15 30 15 37 0 41 -2 30 -15z"/>
 <path d="M3280 595 c-7 -8 -12 -26 -12 -40 0 -34 19 -55 51 -55 32 0 51 16 51 43 0 16 -7 18 -42 16 -33 -2 -42 1 -40 12 5 19 24 30 42 23 38 -15 44 -15 26 0 -25 20 -60 21 -76 1z m70 -70 c-7 -8 -20 -15 -30 -15 -10 0 -23 7 -30 15 -11 13 -7 15 30 15 37 0 41 -2 30 -15z"/>
 <path d="M3395 600 c-5 -9 -1 -10 13 -6 32 10 37 -13 8 -39 -16 -14 -23 -30 -20 -39 7 -17 39 -22 48 -7 4 5 -3 7 -14 4 -27 -7 -26 18 1 35 27 17 22 56 -8 60 -11 2 -24 -2 -28 -8z"/>
 <path d="M3680 595 c-7 -8 -12 -26 -12 -40 0 -34 19 -55 51 -55 32 0 51 16 51 43 0 16 -7 18 -42 16 -33 -2 -42 1 -40 12 5 19 24 30 42 23 38 -15 44 -15 26 0 -25 20 -60 21 -76 1z m70 -70 c-7 -8 -20 -15 -30 -15 -10 0 -23 7 -30 15 -11 13 -7 15 30 15 37 0 41 -2 30 -15z"/>
 <path d="M3798 604 c-5 -4 -8 -28 -8 -54 0 -46 0 -47 33 -47 17 0 24 2 15 4 -18 4 -25 23 -30 76 -2 16 -6 25 -10 21z"/>
 <path d="M3860 560 c0 -55 0 -55 32 -57 17 -1 37 2 44 8 8 7 14 7 19 -1 10 -16 52 -12 59 6 10 26 7 96 -4 89 -5 -3 -10 -26 -10 -51 0 -29 -4 -44 -13 -44 -23 0 -37 23 -37 62 0 55 -18 47 -22 -9 -3 -40 -6 -48 -23 -48 -16 0 -21 8 -23 40 -5 63 -22 67 -22 5z"/>
 <path d="M4047 603 c-11 -10 -8 -103 3 -103 6 0 10 25 10 55 0 56 -1 60 -13 48z"/>
 <path d="M4100 561 c0 -30 -5 -51 -12 -54 -10 -4 -10 -6 0 -6 6 -1 12 -10 12 -21 0 -11 5 -20 11 -20 6 0 8 9 4 20 -4 12 -2 20 5 20 6 0 8 5 4 12 -5 7 -7 29 -5 49 1 20 -2 40 -8 44 -7 4 -11 -11 -11 -44z"/>
 <path d="M4167 592 c-34 -37 -11 -92 38 -92 26 0 55 24 55 46 0 10 -13 14 -46 14 -47 0 -55 13 -21 34 12 8 21 5 36 -8 22 -20 30 -9 9 12 -18 18 -53 15 -71 -6z m73 -61 c0 -13 -34 -23 -54 -15 -28 11 -18 24 19 24 19 0 35 -4 35 -9z"/>
 <path d="M4350 561 c0 -30 -5 -51 -12 -54 -10 -4 -10 -6 0 -6 6 -1 12 -10 12 -21 0 -11 5 -20 10 -20 6 0 10 9 10 19 0 11 6 22 13 24 10 4 10 6 0 6 -9 1 -13 18 -13 51 0 28 -4 50 -10 50 -5 0 -10 -22 -10 -49z"/>
 <path d="M4413 584 c-15 -24 -15 -29 -2 -53 25 -45 99 -38 99 10 0 16 -8 19 -45 19 -47 0 -56 9 -30 30 12 10 21 10 40 2 14 -7 25 -8 25 -3 0 5 -7 12 -16 15 -31 12 -54 6 -71 -20z m75 -56 c-7 -19 -43 -21 -58 -3 -11 13 -8 15 25 15 25 0 35 -4 33 -12z"/>
 <path d="M4541 560 c-1 -55 -1 -55 31 -57 17 -1 38 2 45 8 15 13 18 103 3 94 -5 -3 -10 -26 -10 -51 0 -37 -3 -44 -19 -44 -25 0 -33 14 -42 65 -6 39 -7 38 -8 -15z"/>
 <path d="M4670 595 c-7 -8 -12 -26 -12 -40 0 -34 19 -55 51 -55 32 0 51 16 51 43 0 16 -7 18 -42 16 -33 -2 -42 1 -40 12 5 19 24 30 42 23 38 -15 44 -15 26 0 -25 20 -60 21 -76 1z m70 -70 c-7 -8 -20 -15 -30 -15 -10 0 -23 7 -30 15 -11 13 -7 15 30 15 37 0 41 -2 30 -15z"/>
 <path d="M4788 604 c-5 -4 -8 -28 -8 -54 0 -46 0 -47 33 -47 17 0 24 2 15 4 -18 4 -25 23 -30 76 -2 16 -6 25 -10 21z"/>
 <path d="M5532 540 l-2 -75 45 50 44 50 1 -47 c0 -26 5 -50 10 -53 6 -4 10 22 10 70 l0 76 -42 -50 c-24 -27 -46 -50 -50 -50 -4 -1 -9 23 -11 52 -3 43 -4 39 -5 -23z"/>
 <path d="M5686 595 c-19 -19 -21 -66 -4 -83 22 -22 66 -14 85 14 15 24 15 29 2 53 -17 31 -59 39 -83 16z m62 -7 c7 -7 12 -21 12 -33 0 -43 -50 -62 -70 -26 -14 27 -13 37 6 55 19 19 36 20 52 4z"/>
 <path d="M5863 584 c-15 -24 -15 -29 -2 -53 16 -29 61 -40 85 -20 8 6 14 24 14 40 0 58 -65 81 -97 33z m71 0 c19 -18 20 -28 6 -55 -20 -36 -70 -17 -70 26 0 41 36 58 64 29z"/>
 <path d="M5990 533 c0 -47 4 -73 11 -73 7 0 9 10 7 24 -5 22 -2 24 28 19 41 -7 64 10 64 47 0 38 -29 61 -73 58 l-37 -3 0 -72z m84 48 c31 -35 0 -80 -45 -66 -34 11 -19 85 16 85 7 0 20 -9 29 -19z"/>
 <path d="M6124 598 c-5 -8 -2 -9 9 -5 27 10 31 -13 7 -38 -13 -14 -20 -31 -17 -39 7 -18 43 -21 53 -5 4 8 0 9 -15 4 -15 -5 -21 -2 -21 10 0 8 6 18 14 21 21 8 28 34 15 50 -14 17 -35 18 -45 2z"/>
 <path d="M6218 605 c-6 -10 -11 -75 -9 -122 1 -28 21 -31 21 -3 0 11 6 20 13 20 9 0 9 2 0 8 -6 4 -13 30 -15 57 -2 28 -6 45 -10 40z"/>
 <path d="M6287 592 c-21 -23 -22 -65 -3 -81 8 -6 32 -10 55 -9 l41 3 0 50 0 50 -38 3 c-27 1 -44 -3 -55 -16z m61 -4 c30 -30 2 -86 -37 -73 -29 9 -36 42 -15 66 20 22 35 24 52 7z"/>
 <path d="M6411 560 c-1 -55 -1 -55 31 -57 17 -1 38 2 45 8 15 13 18 103 3 94 -5 -3 -10 -26 -10 -51 0 -37 -3 -44 -19 -44 -25 0 -33 14 -42 65 -6 39 -7 38 -8 -15z"/>
 <path d="M6540 561 c0 -30 -5 -51 -12 -54 -10 -4 -10 -6 0 -6 6 -1 12 -10 12 -21 0 -11 5 -20 10 -20 6 0 10 9 10 19 0 11 6 22 13 24 10 4 10 6 0 6 -9 1 -13 18 -13 51 0 28 -4 50 -10 50 -5 0 -10 -22 -10 -49z"/>
 <path d="M6603 584 c-15 -24 -15 -29 -2 -53 25 -45 99 -38 99 10 0 16 -8 19 -45 19 -47 0 -56 9 -30 30 12 10 21 10 40 2 14 -7 25 -8 25 -3 0 5 -7 12 -16 15 -31 12 -54 6 -71 -20z m75 -56 c-7 -19 -43 -21 -58 -3 -11 13 -8 15 25 15 25 0 35 -4 33 -12z"/>
 <path d="M6831 563 c2 -51 17 -103 29 -103 11 0 20 53 10 65 -5 6 -10 25 -12 44 -2 19 -9 36 -16 39 -10 3 -12 -9 -11 -45z"/>
 <path d="M6902 598 c-31 -31 -1 -98 44 -98 26 0 40 11 48 38 7 21 4 22 -40 22 -38 0 -44 2 -35 14 6 8 22 11 37 8 20 -4 25 -1 22 9 -6 18 -60 23 -76 7z m55 -69 c-14 -8 -22 -8 -30 0 -8 8 -3 11 19 11 25 -1 27 -2 11 -11z"/>
 <path d="M7067 597 c-3 -8 -1 -20 4 -28 5 -8 9 -26 9 -40 0 -22 5 -26 25 -26 27 0 33 12 11 20 -8 3 -16 22 -18 43 -3 38 -21 56 -31 31z"/>
 <path d="M7152 598 c-31 -31 -1 -98 44 -98 26 0 40 11 48 38 7 21 4 22 -40 22 -38 0 -44 2 -35 14 6 8 22 11 37 8 20 -4 25 -1 22 9 -6 18 -60 23 -76 7z m55 -69 c-14 -8 -22 -8 -30 0 -8 8 -3 11 19 11 25 -1 27 -2 11 -11z"/>
 <path d="M7282 598 c-20 -20 -15 -76 8 -88 27 -14 72 -9 78 9 3 10 -3 12 -25 7 -34 -8 -59 13 -49 40 5 12 14 15 35 11 34 -7 45 1 30 20 -14 16 -61 17 -77 1z"/>
 <path d="M7406 594 c-22 -21 -20 -50 4 -74 38 -38 90 -20 90 30 0 50 -60 78 -94 44z m68 -31 c4 -9 0 -23 -8 -31 -12 -13 -18 -13 -30 -2 -9 7 -16 21 -16 31 0 24 45 26 54 2z"/>
 <path d="M7528 556 l4 -54 76 2 77 1 0 49 c0 31 -5 51 -12 54 -9 2 -13 -10 -13 -42 0 -25 -4 -46 -9 -46 -15 0 -29 24 -33 54 -1 16 -9 32 -17 34 -11 4 -13 -4 -8 -37 3 -22 1 -44 -4 -47 -18 -11 -39 18 -39 52 0 21 -5 34 -12 34 -9 0 -12 -16 -10 -54z"/>
 <path d="M7710 558 c3 -31 10 -53 19 -56 11 -4 13 3 8 34 -4 22 -7 47 -7 57 0 9 -6 17 -13 17 -9 0 -11 -14 -7 -52z"/>
 <path d="M7772 598 c-31 -31 -1 -98 44 -98 26 0 40 11 48 38 7 21 4 22 -40 22 -38 0 -44 2 -35 14 6 8 22 11 37 8 20 -4 25 -1 22 9 -6 18 -60 23 -76 7z m55 -69 c-14 -8 -22 -8 -30 0 -8 8 -3 11 19 11 25 -1 27 -2 11 -11z"/>
 <path d="M7890 578 c0 -66 9 -79 49 -76 36 3 36 3 39 56 2 42 0 52 -13 52 -12 0 -15 -9 -13 -42 2 -33 -1 -43 -12 -43 -9 0 -18 15 -24 43 -10 50 -26 56 -26 10z"/>
 <path d="M8014 585 c-13 -21 -14 -28 -2 -52 11 -23 20 -28 51 -28 32 0 37 -3 37 -22 0 -14 6 -23 15 -23 18 0 18 5 3 85 l-11 63 -39 0 c-30 1 -42 -5 -54 -23z m74 -33 c4 -28 -24 -40 -45 -19 -21 21 -9 49 19 45 15 -2 24 -11 26 -26z"/>
 <path d="M8152 598 c-18 -18 -14 -63 7 -82 50 -45 114 12 77 68 -18 28 -63 35 -84 14z m63 -48 c0 -32 -30 -39 -45 -10 -14 26 -4 42 23 38 16 -2 22 -10 22 -28z"/>
 <path d="M8326 558 c3 -61 12 -98 25 -98 5 0 9 9 9 19 0 11 6 22 13 25 9 3 8 8 -5 18 -9 8 -18 29 -20 48 -5 57 -25 46 -22 -12z"/>
 <path d="M8396 595 c-36 -36 -7 -95 47 -95 25 0 47 23 47 49 0 6 -18 11 -41 11 -28 0 -39 4 -36 13 2 7 16 11 31 9 20 -3 27 0 24 10 -7 19 -53 22 -72 3z m57 -66 c-8 -8 -16 -8 -30 0 -16 9 -14 10 12 11 21 0 26 -3 18 -11z"/>
 <path d="M8510 593 c0 -10 3 -35 6 -55 6 -36 8 -38 45 -38 21 0 40 4 43 9 10 16 -6 101 -19 101 -9 0 -11 -13 -7 -45 3 -27 1 -45 -5 -45 -17 0 -31 23 -35 54 -3 32 -28 49 -28 19z"/>
 <path d="M8642 598 c-31 -31 -1 -98 44 -98 26 0 40 11 48 38 7 21 4 22 -40 22 -38 0 -44 2 -35 14 6 8 22 11 37 8 20 -4 25 -1 22 9 -6 18 -60 23 -76 7z m55 -69 c-14 -8 -22 -8 -30 0 -8 8 -3 11 19 11 25 -1 27 -2 11 -11z"/>
 <path d="M8754 588 c3 -13 6 -38 6 -55 0 -30 3 -33 31 -33 l30 0 -20 26 c-12 15 -21 40 -21 55 0 20 -5 29 -16 29 -12 0 -15 -6 -10 -22z"/>
 <path d="M8880 593 c0 -10 3 -34 6 -54 l6 -36 73 -1 c56 0 75 4 79 15 9 23 -5 93 -19 93 -7 0 -10 -11 -7 -30 2 -16 1 -37 -2 -46 -9 -25 -34 0 -38 38 -5 52 -28 47 -28 -6 0 -25 -4 -46 -9 -46 -15 0 -29 24 -33 54 -3 32 -28 49 -28 19z"/>
 <path d="M9074 585 c-13 -21 -14 -28 -2 -52 12 -24 19 -28 61 -29 52 -2 52 -1 41 67 -6 35 -8 37 -45 37 -31 1 -43 -4 -55 -23z m74 -33 c4 -28 -24 -40 -45 -19 -21 21 -9 49 19 45 15 -2 24 -11 26 -26z"/>
 <path d="M9326 594 c-22 -21 -20 -50 4 -74 38 -38 90 -20 90 30 0 50 -60 78 -94 44z m68 -31 c4 -9 0 -23 -8 -31 -12 -13 -18 -13 -30 -2 -9 7 -16 21 -16 31 0 24 45 26 54 2z"/>
 <path d="M9435 593 c2 -10 6 -34 10 -54 5 -31 9 -36 31 -36 22 0 23 1 11 16 -8 9 -17 33 -21 54 -4 21 -13 37 -21 37 -7 0 -12 -8 -10 -17z"/>
 <path d="M9685 593 c2 -10 7 -35 10 -55 5 -32 10 -38 30 -38 28 0 32 12 11 30 -8 6 -16 26 -18 43 -2 20 -9 33 -20 35 -11 2 -15 -2 -13 -15z"/>
 <path d="M9772 598 c-18 -18 -14 -63 7 -82 50 -45 114 12 77 68 -18 28 -63 35 -84 14z m63 -48 c0 -32 -30 -39 -45 -10 -14 26 -4 42 23 38 16 -2 22 -10 22 -28z"/>
 <path d="M9885 555 c0 -30 3 -55 6 -55 4 0 9 -9 12 -20 3 -12 14 -20 26 -20 25 0 28 15 4 24 -13 5 -14 9 -5 15 10 6 10 11 -3 21 -9 7 -15 28 -15 51 0 25 -5 39 -12 39 -9 0 -13 -18 -13 -55z"/>
 <path d="M9952 593 c-14 -27 -3 -93 15 -93 12 0 14 9 11 40 -3 32 0 40 13 40 19 0 29 -20 29 -56 0 -13 5 -24 10 -24 18 0 11 76 -8 93 -24 22 -59 22 -70 0z"/>
 <path d="M10068 556 l4 -55 41 2 42 2 0 49 c0 31 -5 51 -12 54 -9 2 -13 -10 -13 -42 0 -25 -4 -46 -8 -46 -18 0 -32 26 -32 57 0 20 -5 33 -12 33 -9 0 -12 -16 -10 -54z"/>
 <path d="M10190 555 c0 -9 9 -15 25 -15 16 0 25 6 25 15 0 9 -9 15 -25 15 -16 0 -25 -6 -25 -15z"/>
 <path d="M7725 480 c-8 -13 4 -32 16 -25 12 8 12 35 0 35 -6 0 -13 -4 -16 -10z"/>
 <path d="M2090 465 c7 -8 17 -15 22 -15 6 0 5 7 -2 15 -7 8 -17 15 -22 15 -6 0 -5 -7 2 -15z"/>
 </g>

</svg>