<svg xmlns="http://www.w3.org/2000/svg" xmlns:xlink="http://www.w3.org/1999/xlink" viewBox="0 0 1523.79 951.57"><defs><style>.cls-1{fill:none;}.cls-2{fill:#5b0060;}.cls-3{fill:#f7f7f7;}.cls-4{clip-path:url(#clip-path);}.cls-5{fill:#ef2052;}.cls-6{fill:#fffbe9;}.cls-7{fill:#867792;}.cls-8{fill:#fff;}.cls-9{fill:#1ccdd1;}.cls-10{fill:#f9ed1c;}</style><clipPath id="clip-path"><rect class="cls-1" x="16.49" y="31.7" width="1493" height="896.88" rx="37.86"/></clipPath></defs><title>Recurso 164</title><g id="Capa_2" data-name="Capa 2"><g id="Capa_1-2" data-name="Capa 1"><rect class="cls-2" x="17.49" y="35.7" width="1493" height="896.88" rx="37.86"/><rect class="cls-3" x="20.44" y="30.12" width="1493" height="896.88" rx="37.86"/><g class="cls-4"><path class="cls-5" d="M1520.76,489c-2.61-26.16-4.79-52.36-4.85-78.68a63,63,0,0,1-.15-14.25c-1-9.15-1.71-18.32-2.06-27.53,0-.14,0-.29,0-.43-43.21.64-87.55,13.09-125.07,28.78-44.93,18.77-82.85,46-92.64,96.49C1266.35,648,1378.59,786.2,1520.31,779,1518.29,682.34,1519.94,585.65,1520.76,489Z"/><path class="cls-6" d="M1392.71,468a3.47,3.47,0,0,0,.37,2c.23.35.44.7.65,1.05l.1.1,0,.07s0,0,0,0c.15.17.3.32.46.48s.36.39.3.29a8,8,0,0,0,1,.83s0,.05.08.07a6.61,6.61,0,0,0,4.92,1.3,2.22,2.22,0,0,0,.58-.27l.17-.08a2.19,2.19,0,0,0,.67-.61,1.8,1.8,0,0,0,.29-.46,2.79,2.79,0,0,0,.12-1.23s0-.08,0-.13l-.06,0a4.27,4.27,0,0,0-.29-1,8.29,8.29,0,0,0-5.29-4.13C1395.36,465.86,1393,466,1392.71,468Z"/><path class="cls-6" d="M1385.14,451.35c.47,2.36,2.95,4.17,5.15,4.73,1.75.44,4.27-.11,3.8-2.45s-3-4.17-5.16-4.73C1387.18,448.46,1384.66,449,1385.14,451.35Z"/><path class="cls-6" d="M1366.5,463.39c.43,2.15,2.69,3.79,4.71,4.31,1.6.41,3.9-.1,3.46-2.23s-2.7-3.8-4.71-4.31C1368.36,460.75,1366.06,461.25,1366.5,463.39Z"/><path class="cls-6" d="M1406.54,441.42c0,.4,0,.81,0,1.21.26,1.4.41,1.76.49,1a8.28,8.28,0,0,0,7.07,5.52c-1-.12-.59-.06,1.09.19a3.69,3.69,0,0,0,3.33-1.33c1.37-2.08-.56-4.79-2-6.18-1.93-1.78-4.92-3.32-7.62-2.74A2.81,2.81,0,0,0,1406.54,441.42Z"/><path class="cls-6" d="M1442.89,442.21c.84,4.13,11.21,8.17,10.06,2.54C1452.1,440.62,1441.74,436.57,1442.89,442.21Z"/><path class="cls-6" d="M1438.62,467.48c.55,2.67,7.26,5.3,6.51,1.65C1444.59,466.45,1437.87,463.83,1438.62,467.48Z"/><path class="cls-6" d="M1461.86,476.81c.53,2.73,3.05,4.64,5.37,5.8a.91.91,0,0,0,.22.11c1.79.91,4.62,1.31,6-.49l.1-.12c1.11-1.43,0-3.61-.86-4.8a10.18,10.18,0,0,0-7.23-4C1463.33,473.18,1461.41,474.47,1461.86,476.81Z"/><path class="cls-6" d="M1472.19,444.39c0,2.43,1.14,3.83,2.83,5.48.89.88,2.88,1.9,4.11,1.08a6,6,0,0,0,1.82-1.71c1.28-1.95-1.09-4.39-2.55-5.35C1477.19,443.09,1472.22,441.33,1472.19,444.39Z"/><path class="cls-6" d="M1433.38,490.84c-2.73,1.37,2.21,4.82,3.68,4.84a10.85,10.85,0,0,0,1.4-.1,1.51,1.51,0,0,0,1-.63c0-.11.08-.21.13-.32.64-1.55-.91-3.18-2.31-3.7A4.43,4.43,0,0,0,1433.38,490.84Z"/><path class="cls-6" d="M1433.39,414.28c.66,3.23,4.06,5.73,7.1,6.49,2.41.62,5.87-.13,5.22-3.36s-4.07-5.73-7.1-6.49C1436.2,410.31,1432.73,411.06,1433.39,414.28Z"/><path class="cls-6" d="M1474.93,665.88c.51,2.51,3.15,4.45,5.51,5,1.87.47,4.57-.11,4.06-2.62s-3.16-4.45-5.52-5C1477.11,662.79,1474.42,663.38,1474.93,665.88Z"/><path class="cls-6" d="M1457.24,642c1.15,2.42,4.27,4.32,7,3.67,1.23-.17,2.22-.93,1.94-2.37-.36-1.92-2.12-3.18-3.73-4a5.69,5.69,0,0,0-1.76-.58C1458.37,638.29,1455.93,639.23,1457.24,642Z"/><path class="cls-6" d="M1450.2,665.28c.48,2.39,6.46,4.73,5.8,1.48C1455.51,664.38,1449.53,662,1450.2,665.28Z"/><path class="cls-6" d="M1480.82,642.75c.56,2.79,3.5,4.93,6.12,5.59,2.07.54,5.07-.11,4.5-2.89s-3.51-4.94-6.12-5.6C1483.25,639.32,1480.25,640,1480.82,642.75Z"/><path class="cls-6" d="M1472.76,619.56c.72,1.51,3.51,3.79,5.54,3.32a1.12,1.12,0,0,0,.8-.23l.42-.37c1.64-1.46-.12-3.45-1.45-4.41a8,8,0,0,0-2.46-1.09C1473.64,616.19,1471.76,617.46,1472.76,619.56Z"/><path class="cls-6" d="M1519.35,663.91c-2.48-2-6.5-3.75-7-.32a7.64,7.64,0,0,0,0,2c.3,2.53,3.37,4.57,5.61,5.13a4.81,4.81,0,0,0,1.45.13Z"/><path class="cls-6" d="M1472.3,683.9c.69,3.37,9.16,6.68,8.22,2.08C1479.82,682.61,1471.36,679.3,1472.3,683.9Z"/><path class="cls-6" d="M1431.37,656.24a.51.51,0,0,0-.12.27c-1.88,1.65,1.18,4,2.71,4.39,2.7.68,2.81-1.8,1.29-3.33-.11-.13-.21-.27-.32-.41C1434.37,656.42,1432.13,654.92,1431.37,656.24Z"/><path class="cls-6" d="M1396.38,688.4c-.19,0-.4,0-.57,0a2.06,2.06,0,0,0-1.58,1.12s0,0,0,0l0,0s0,.09,0,.13a2.32,2.32,0,0,0-.1,1,6.16,6.16,0,0,0,1.78,3.33,7.87,7.87,0,0,0,4.73,2.16c.84,0,3.1-.45,2.83-1.81,0-.19-.13-.34-.17-.52s0-.09,0-.15a3.17,3.17,0,0,0-.77-2.19,7.05,7.05,0,0,0-2.3-2l-.29-.19a7.63,7.63,0,0,0-1.69-.67,2.6,2.6,0,0,0-.25-.1h-.06a5.81,5.81,0,0,0-1-.09A5.19,5.19,0,0,0,1396.38,688.4Z"/><path class="cls-6" d="M1394.23,689.54v0c-.28.15-.38.59-.19,1.54,0-.15,0-.24,0-.38a2.25,2.25,0,0,1,.1-1S1394.21,689.58,1394.23,689.54Z"/><path class="cls-6" d="M1416.42,702.09a1.32,1.32,0,0,0-1.59.21h0l-1.07.71c-1.39.93,1.15,2.51,2,2.59l1.71.16c.06,0,.07,0,.13,0a1.2,1.2,0,0,0,.53-.09c.76-.24.69-1,.17-1.86A3.11,3.11,0,0,0,1416.42,702.09Z"/><path class="cls-6" d="M1395.22,719.08c.4,3.35,8.2,5.54,7.22,1.84l0,0c2.17-1.49-3.07-5.77-5.25-5.23C1395.28,716.13,1395,717.33,1395.22,719.08Z"/><path class="cls-6" d="M1330.89,497.63c1,1.63,4.72,4.63,6.36,2.13.06-.1,0-.21.06-.3.08-.3.21-.77.21-.79.65-2.13-2.67-4.21-4.26-4.61C1330.44,493.34,1329.51,495.45,1330.89,497.63Z"/><path class="cls-6" d="M1376.22,554.54c.46,2.28,2.84,4,5,4.56,1.68.43,4.12-.09,3.65-2.35s-2.84-4-5-4.56C1378.19,551.76,1375.75,552.28,1376.22,554.54Z"/><path class="cls-6" d="M1389.13,551.59c.57,2.75,7.46,5.44,6.7,1.7C1395.27,550.53,1388.37,547.84,1389.13,551.59Z"/><path class="cls-7" d="M1377.48,650.15c-19,22.37-55.46,31.7-92.86,23.79-40.46-8.58-70.88-34.65-81.34-69.74-7.91-26.47-2.28-54.44,15-74.84A76.3,76.3,0,0,1,1273,502.62c47.34-2.54,95.64,29.49,112.35,74.5,13.62,36.71,3.26,60-7.83,73Z"/><path class="cls-8" d="M1226.41,537.21a65.16,65.16,0,0,1,46.75-22.83c42.75-2.3,86.42,27.3,101.23,67.21,10.1,27.18,6.1,47.83-5.87,61.92-34.38,40.46-134.5,26.74-155-41.87-7.09-23.76-1.39-47.65,12.87-64.43m-17.05-14.47c-19.77,23.26-26.22,55.13-17.24,85.23,11.67,39.09,45.23,68.06,89.78,77.49,41.35,8.76,82-2,103.67-27.47,10.66-12.54,26.1-40.14,9.77-84.12-18.34-49.43-71.41-84.59-123.45-81.79a87.28,87.28,0,0,0-62.53,30.66Z"/><path class="cls-6" d="M1245,576.9c.9,4.43,5.56,7.83,9.72,8.88,3.29.83,8-.19,7.13-4.6s-5.55-7.83-9.71-8.88C1248.85,571.46,1244.11,572.49,1245,576.9Z"/><path class="cls-6" d="M1255.9,553.42c.66,3.23,4.06,5.72,7.09,6.48,2.4.61,5.86-.13,5.21-3.35s-4.06-5.71-7.09-6.49C1258.71,549.47,1255.25,550.21,1255.9,553.42Z"/><path class="cls-6" d="M1277,555.24c-.12.35-.26.71-.41,1.07-1.4,3.7,2.78,7,6,7.84,4.15,1.05,5.7-2.08,3.55-5.35l-.92-1.41C1284.26,555.9,1278.23,552,1277,555.24Z"/><path class="cls-6" d="M1276.19,576.56l-.34.19c-.54.3-.56.84-.53,1.37,0,.3,0,.59,0,.88.15,3,6.93,4.72,5.6.86a5.13,5.13,0,0,0-1.68-2.49C1278.5,576.71,1277.22,576,1276.19,576.56Z"/><path class="cls-6" d="M1323.74,610.79c.8,3.92,4.94,7,8.63,7.88,2.93.75,7.14-.17,6.34-4.09s-4.94-7-8.62-7.89C1327.16,606,1323,606.86,1323.74,610.79Z"/><path class="cls-9" d="M124.41,378.45C94.46,343,50,328.25,5,325.87q.86,8.94,1.62,17.87C15.45,448,15,552.6,14.57,657.15,38,649.93,60.83,640.72,83.1,627.53,131.18,599.06,159.51,540,166,486.89,170.89,447.33,149.68,408.34,124.41,378.45Z"/><path class="cls-2" d="M15.49,55A18.81,18.81,0,0,1,10,58.9q-.45,7.38-.93,14.76c5.94-2.36,11.84-4,16.7-8.46C32.63,58.88,21.82,48.09,15.49,55Z"/><path class="cls-2" d="M16.65,135.93c9.91-4.18,17.8-12.09,27-17.43,3.4-2,3.68-7.12,1.58-10.06-2.45-3.44-6.74-3.54-10.09-1.59-4.53,2.63-8.26,6.65-12.36,9.86s-9.48,6-12.68,10.24c-3.36,4.41,1.05,11.31,6.56,9Z"/><path class="cls-2" d="M1.41,180.46Q.63,193,0,205.51c3.24-3.36,6.44-6.75,9.54-10.21C16.09,188,8.38,179.23,1.41,180.46Z"/><path class="cls-2" d="M27.55,3.78C23.48.16,18.06-.29,12.57.13q-.2,7.49-.46,15c5.56.52,10.91.7,15.44-3.32A5.67,5.67,0,0,0,27.55,3.78Z"/><path class="cls-2" d="M89.4,31.43c-1.6,5,5.5,7.2,9.11,7.86,9.16,1.67,18.16,3.14,27.16,5.75,9.49,2.74,13.23-13.06,4-14.35a133.27,133.27,0,0,0-24.62-1c-3.65.17-10.09,1.86-13.5.57a1.74,1.74,0,0,0-2.11,1.2Z"/><path class="cls-2" d="M102.57,86.14a121.51,121.51,0,0,0,20.48,6.45c5.48,1.15,12.33,3.09,17.9,2.63,6.3-.52,10.17-7.92,5.32-12.81-5.29-5.32-13.2-3.28-20-3.65-7.17-.39-16.91-2.41-23.69.27a3.72,3.72,0,0,0,0,7.11Z"/><path class="cls-2" d="M134.7,141.5c13.16,5.4,28.32,1.84,41.91,5.21,14.66,3.63,14.75-21.18,0-17.52-13.6,3.37-28.75-.2-41.91,5.2-3.48,1.43-3.49,5.68,0,7.11Z"/><path class="cls-2" d="M59.09,159.3c4.43.83,8.58.23,12.93-.77s9.13-1,13.69-1.78c8.73-1.52,4.87-16.3-3.69-13.34-3.62,1.24-7.43,1.71-11,3s-7,3.85-10.76,4.3c-4.41.54-6.47,7.57-1.16,8.55Z"/><path class="cls-2" d="M203.47,91.84c1,7.86,9.52,10.93,15.9,14.09,2.3,1.13,4.67,2.16,6.92,3.38-.4-.22,2.77,1.68,2,1.09-1.53-1.13,3,2.86,3.54,3.14,5.16,2.74,11.78.4,13.39-5.43l.15-.53c.84-3.07.08-7.14-2.46-9.28-4.27-3.58-8.83-4.39-14.15-5.26-6.6-1.08-12.92-3.4-19.1-5.88-2.73-1.09-6.54,1.74-6.17,4.68Z"/><path class="cls-10" d="M191.76,362.3c-1.29,0-2.65,0-4.17.11a75.34,75.34,0,0,0-7.83.91l-3.11.45c-3.18.43-6.32,1-8.7,1.42-1,.18-1.95.33-2.93.48a55.67,55.67,0,0,0-6.05,1.18c-1.26.34-2.57.76-3.89,1.24a45.32,45.32,0,0,0-4.58,2,21.28,21.28,0,0,0-3.65,2.68l-.36.31-.36.31a20.49,20.49,0,0,0-3.47,4.14,16.8,16.8,0,0,0-1.34,2.4l-.87.78c-2.07,2.06-3.12,4.57-3.4,8.16-.44,5.86-1,13.61-1.25,21.5-.07,2.34,0,4.73,0,7,0,.9,0,1.78,0,2.67.06,3.8.1,7.6.14,11.4.06,4.94,0,10-.08,14.8-.11,8.41-.23,17.1.29,25.64a108,108,0,0,0,1.57,12.53,27.72,27.72,0,0,0,3.52,9.31c2.7,4.46,7.38,8.26,13.18,10.7a51.43,51.43,0,0,0,8.17,2.82c2.33.56,4.69.92,6.9,1.24,3.29.47,6.62.81,9.48,1.11s6,.52,9.44.69c3.08.16,5.81.24,8.33.24a92.17,92.17,0,0,0,12-.72l1.57-.2a58,58,0,0,0,5.95-.95c1.71-.4,3.4-.88,5.18-1.46a81,81,0,0,0,10.88-4.62,38.78,38.78,0,0,0,3.71-2.28l.17-.11a38.06,38.06,0,0,0,5.7-4.43,35.56,35.56,0,0,0,7-9.5,55.23,55.23,0,0,0,4.81-13.95,130,130,0,0,0,1.83-12.95c.59-5.94.7-12,.82-17.92l0-1.88c.15-7.26.22-14,.22-20.59a102.73,102.73,0,0,0-2.32-21.92,50.57,50.57,0,0,0-4-11.31,24.38,24.38,0,0,0-6-7.8,33.4,33.4,0,0,0-6.92-4.64,96.38,96.38,0,0,0-11.09-4.2l-1.66-.55c-2.16-.72-4.39-1.46-6.62-2.07a112.6,112.6,0,0,0-20.9-4C195.4,362.38,193.6,362.3,191.76,362.3Z"/><path class="cls-10" d="M1521.28,59.29c-.67-1.83-1.42-3.64-2.22-5.43a119.71,119.71,0,0,0-8.76-11.08,157.83,157.83,0,0,0-17.14-14.28q-4.37-2.13-8.9-3.82c-12.25-2.4-24.75-2.94-37.24-3.36,0,.38,0,.76,0,1.14.06,4.94,0,9.95-.08,14.8-.11,8.41-.23,17.1.29,25.64a108,108,0,0,0,1.57,12.53,27.72,27.72,0,0,0,3.52,9.31c2.7,4.46,7.38,8.26,13.18,10.7a51.43,51.43,0,0,0,8.17,2.82c2.33.56,4.69.92,6.9,1.24,3.29.47,6.62.81,9.48,1.11s6,.52,9.44.69c3.08.16,5.81.24,8.33.24a92.17,92.17,0,0,0,12-.72l1.57-.2,2.37-.31C1523.88,86.58,1523.71,72.72,1521.28,59.29Z"/><path class="cls-10" d="M1431.89,916.06c.06,3.8.1,7.6.14,11.4.06,4.94,0,9.95-.08,14.8,0,3.08-.08,6.19-.09,9.31,7.9-2.85,15.71-5.94,23.49-9.12,12.29-5,25.13-9.53,37.14-15.4q2.76-1.87,5.39-3.95c1-1.16,1.89-2.33,2.78-3.53a127.27,127.27,0,0,0,6.3-16c3.35-13.41,6-27,9.34-40.39-.76-.24-1.52-.47-2.28-.68a112.6,112.6,0,0,0-20.9-4c-1.72-.13-3.52-.21-5.36-.21-1.29,0-2.65,0-4.17.11a75.34,75.34,0,0,0-7.83.91l-3.11.45c-3.18.43-6.32,1-8.7,1.42-1,.18-2,.33-2.93.48a55.67,55.67,0,0,0-6,1.18c-1.26.34-2.57.76-3.89,1.24a45.32,45.32,0,0,0-4.58,2,21.28,21.28,0,0,0-3.65,2.68l-.36.31-.36.31a20.49,20.49,0,0,0-3.47,4.14,16.8,16.8,0,0,0-1.34,2.4l-.87.78c-2.07,2.06-3.12,4.57-3.4,8.16-.44,5.86-1,13.61-1.25,21.5-.07,2.34,0,4.73,0,7C1431.86,914.29,1431.88,915.17,1431.89,916.06Z"/><path class="cls-2" d="M1362.87,43.85c-.89-1.7-1.71-3.42-2.5-5.17-.92-2.06-2-4-3-6.06-1.88-4.14-3.26-8.48-4.8-12.75-.67-1.83-1.39-3.65-2.09-5.48-11.52.4-23,.72-34.55.9a47.9,47.9,0,0,0-1.64,9,67.86,67.86,0,0,0-.22,9.46c.13,4.95.45,9.88.52,14.83-.08,1.17-.21,2.3-.4,3.44q-.78-1-1.47-2.16c-.77-1.23-1.48-2.51-2.18-3.78-4-7.77-6.48-16.19-9.9-24.18a50.89,50.89,0,0,0-3.32-6.44q-13.2,0-26.38-.42c-.25.29-.5.59-.74.89a33.38,33.38,0,0,0-2.74,4.37,29.54,29.54,0,0,0-2.82,7.88,122.2,122.2,0,0,0-2.39,17.58c-.26,3.12-.46,6.25-.8,9.37-.16,1.42-.31,2.86-.51,4.3a72.17,72.17,0,0,1-2.61-6.92c-.87-2.53-1.58-5.11-2.24-7.7a67,67,0,0,0-4.46-13.31c-.73-1.5-1.55-3-2.39-4.4a22,22,0,0,0-4.13-5,13.93,13.93,0,0,0-3.5-2.22,17.88,17.88,0,0,0-4.05-1.23,19.45,19.45,0,0,0-9.27.8,13.9,13.9,0,0,0-5.12,3.08,32,32,0,0,0-3.49,3.59,39.49,39.49,0,0,0-4.37,7.1,46.28,46.28,0,0,0-2.9,7.8,46.88,46.88,0,0,0-1.4,6.51,67.6,67.6,0,0,0-.25,17.17c.67,5.81,1.49,11.6,2.21,17.4a7,7,0,1,0,13.88-1.56q-.8-6.48-1.55-13c-.17-1.56-.39-3.1-.54-4.65s-.22-3.25-.26-4.88c.1-2.18.25-4.33.54-6.5a48.76,48.76,0,0,1,1.22-5.86,47.48,47.48,0,0,1,3.64-8.14,28.69,28.69,0,0,1,2.91-3.77l.56-.44.34-.13,1-.11.53.08.09,0,.82,1.22a55.27,55.27,0,0,1,3.21,8.51c.38,1.67.73,3.36,1.06,5,.6,3,1.35,6,2.13,9,.55,2.14,1.27,4.26,2,6.33a26,26,0,0,0,1.48,3.38,18.61,18.61,0,0,0,2.79,4.2,33.43,33.43,0,0,0,2.37,2.39,24.74,24.74,0,0,0,3.39,2.27,16.78,16.78,0,0,0,9.63,2.48,11.53,11.53,0,0,0,5.41-2.13,13.72,13.72,0,0,0,4-5c1.19-2.08,1.57-4.61,2-7,.19-1.07.33-2.14.47-3.21.65-4.7,1-9.42,1.46-14.14a119.13,119.13,0,0,1,2.55-16.92,34.44,34.44,0,0,1,1.82-4,26.69,26.69,0,0,1,2.36-3.05,108.31,108.31,0,0,1,4,11.43c1.31,4.05,2.61,8.13,4.12,12.12a52.94,52.94,0,0,0,3.75,8c1,1.78,2.09,3.57,3.15,5.33a32.19,32.19,0,0,0,5.31,6.21,18.29,18.29,0,0,0,3.68,2.57,19.2,19.2,0,0,0,4.26,1.55,10.87,10.87,0,0,0,3.37.23,17.58,17.58,0,0,0,3.19-.67,12.87,12.87,0,0,0,2.49-1.31,15.88,15.88,0,0,0,2.47-2.24,8.32,8.32,0,0,0,1-1.37,32.23,32.23,0,0,0,1.9-3.39,18.38,18.38,0,0,0,.69-1.79q.9-2.72,1.54-5.51a43.56,43.56,0,0,0,.6-9.05c.06-5.17-.14-10.33-.14-15.5a49.64,49.64,0,0,1,1.1-9.34,15.83,15.83,0,0,1,.91-2,22.28,22.28,0,0,1,1.65-2.09h0c.47,1.25.82,2.53,1.17,3.83.45,1.7,1,3.39,1.48,5.08,1.05,3.52,2,7.05,3.1,10.57a89.47,89.47,0,0,0,4.37,10.36c.79,1.74,1.6,3.47,2.51,5.16.74,1.36,1.49,2.72,2.29,4a18.45,18.45,0,0,0,3.44,3.88c2.91,2.67,7.73,2.55,10.8.31a8.86,8.86,0,0,0,3.52-5.77c0-.78,0-1.58,0-2.37a8.89,8.89,0,0,0-1.65-4.2C1364,45.72,1363.41,44.79,1362.87,43.85Z"/><path class="cls-2" d="M1401.46,61.07l.3-.26Z"/><polygon class="cls-2" points="1446.31 65.06 1446.32 65.06 1446.79 64.65 1446.31 65.06"/></g></g></g></svg>