<svg width="512" height="512" xmlns="http://www.w3.org/2000/svg">
 <defs>
  <filter id="svg_2_blur">
   <feGaussianBlur stdDeviation="0" in="SourceGraphic"/>
  </filter>
 </defs>
 <g>
  <title>background</title>
  <rect fill="none" id="canvas_background" height="514" width="514" y="-1" x="-1"/>
 </g>
 <g>
  <title>Layer 1</title>
  <path id="svg_1" fill="#1ab7b7" d="m464.883,64.267l-417.766,0c-25.98,0 -47.117,21.136 -47.117,47.149c0,25.98 21.137,47.117 47.117,47.117l417.766,0c25.98,0 47.117,-21.137 47.117,-47.117c0,-26.013 -21.137,-47.149 -47.117,-47.149z"/>
  <path filter="url(#svg_2_blur)" id="svg_2" fill="#19aaaa" d="m464.883,65.26697c25.98,0 47.117,20.68854 47.117,46.14866c0,25.42879 -21.137,46.11734 -47.117,46.11734l-208.883,0l0,-92.26599l208.883,0z"/>
  <path id="svg_3" fill="#1ab7b7" d="m464.883,208.867l-417.766,0c-25.98,0 -47.117,21.136 -47.117,47.149c0,25.98 21.137,47.117 47.117,47.117l417.766,0c25.98,0 47.117,-21.137 47.117,-47.117c0,-26.013 -21.137,-47.149 -47.117,-47.149z"/>
  <path id="svg_4" fill="#19aaaa" d="m464.883,209.867c25.98,0 47.117,20.68854 47.117,46.14866c0,25.42879 -21.137,46.11734 -47.117,46.11734l-208.883,0l0,-92.26697l208.883,0l0,0.00098z"/>
  <path id="svg_5" fill="#1ab7b7" d="m464.883,353.467l-417.766,0c-25.98,0 -47.117,21.137 -47.117,47.149c0,25.98 21.137,47.117 47.117,47.117l417.766,0c25.98,0 47.117,-21.137 47.117,-47.117c0,-26.012 -21.137,-47.149 -47.117,-47.149z"/>
  <path id="svg_6" fill="#19aaaa" d="m464.883,354.46696c25.98,0 47.117,20.68856 47.117,46.14869c0,25.42881 -21.137,46.11737 -47.117,46.11737l-208.883,0l0,-92.26705l208.883,0l0,0.00098z"/>
 </g>
</svg>