<svg width="512" height="512" xmlns="http://www.w3.org/2000/svg">

 <g>
  <title>background</title>
  <rect fill="none" id="canvas_background" height="514" width="514" y="-1" x="-1"/>
 </g>
 <g>
  <title>Layer 1</title>
  <g id="svg_1">
   <g id="svg_2">
    <path fill="#2ab7b7" id="svg_3" d="m467,61l-302,0c-24.82,0 -45,20.19 -45,45c0,24.82 20.18,45 45,45l302,0c24.81,0 45,-20.18 45,-45c0,-24.81 -20.19,-45 -45,-45z"/>
   </g>
  </g>
  <g fill="#2ab7b7" id="svg_4">
   <g id="svg_5">
    <path id="svg_6" d="m467,211l-302,0c-24.82,0 -45,20.19 -45,45c0,24.82 20.18,45 45,45l302,0c24.81,0 45,-20.18 45,-45c0,-24.81 -20.19,-45 -45,-45z"/>
   </g>
  </g>
  <g fill="#2ab7b7" id="svg_7">
   <g id="svg_8">
    <path id="svg_9" d="m467,361l-302,0c-24.82,0 -45,20.19 -45,45c0,24.82 20.18,45 45,45l302,0c24.81,0 45,-20.18 45,-45c0,-24.81 -20.19,-45 -45,-45z"/>
   </g>
  </g>
  <g fill="#2ab7b7" id="svg_10">
   <g id="svg_11">
    <path id="svg_12" d="m45,61c-24.82,0 -45,20.19 -45,45c0,24.82 20.18,45 45,45c24.81,0 45,-20.18 45,-45c0,-24.81 -20.19,-45 -45,-45z"/>
   </g>
  </g>
  <g fill="#2ab7b7" id="svg_13">
   <g id="svg_14">
    <path id="svg_15" d="m45,211c-24.82,0 -45,20.19 -45,45c0,24.82 20.18,45 45,45c24.81,0 45,-20.18 45,-45c0,-24.81 -20.19,-45 -45,-45z"/>
   </g>
  </g>
  <g fill="#2ab7b7" id="svg_16">
   <g id="svg_17">
    <path id="svg_18" d="m45,361c-24.82,0 -45,20.19 -45,45c0,24.82 20.18,45 45,45c24.81,0 45,-20.18 45,-45c0,-24.81 -20.19,-45 -45,-45z"/>
   </g>
  </g>
  <g id="svg_19"/>
  <g id="svg_20"/>
  <g id="svg_21"/>
  <g id="svg_22"/>
  <g id="svg_23"/>
  <g id="svg_24"/>
  <g id="svg_25"/>
  <g id="svg_26"/>
  <g id="svg_27"/>
  <g id="svg_28"/>
  <g id="svg_29"/>
  <g id="svg_30"/>
  <g id="svg_31"/>
  <g id="svg_32"/>
  <g id="svg_33"/>
 </g>
</svg>